<?xml version="1.0" encoding="utf-8"?>
<!-- Generator: Adobe Illustrator 27.8.0, SVG Export Plug-In . SVG Version: 6.00 Build 0)  -->
<svg version="1.1" id="Layer_1" xmlns="http://www.w3.org/2000/svg" xmlns:xlink="http://www.w3.org/1999/xlink" x="0px" y="0px"
	 viewBox="0 0 266.5 273.6" style="enable-background:new 0 0 266.5 273.6;" xml:space="preserve">
<style type="text/css">
	.st0{fill:#231F20;}
</style>
<g id="Layer_2_00000034784972809474264460000004996659672699632282_">
	<g id="Layer_1-2">
		<path class="st0" d="M76.9,91.6h-0.2H76.9z"/>
		<path class="st0" d="M78.4,91.8L78.4,91.8C78.3,91.8,78.3,91.8,78.4,91.8z"/>
		<path class="st0" d="M77.6,91.2h-0.2C77.5,91.2,77.6,91.2,77.6,91.2z"/>
		<path class="st0" d="M47.4,95.3L47.4,95.3z"/>
		<path class="st0" d="M80.5,92.1c-0.2,0-0.3,0-0.5-0.1C80.2,92,80.4,92,80.5,92.1L80.5,92.1z"/>
		<path class="st0" d="M81.6,92.3L81.6,92.3c-0.1,0-0.2,0-0.3,0H81.6z"/>
		<polygon class="st0" points="76.5,91.6 76.6,91.6 76.4,91.5 		"/>
		<path class="st0" d="M34.8,93.7c0-0.2,0.1-0.4,0.1-0.4v0.1C34.9,93.5,34.8,93.6,34.8,93.7z"/>
		<path class="st0" d="M39.9,94.6L39.9,94.6L39.9,94.6z"/>
		<polygon class="st0" points="40,94.8 40,94.8 40,94.8 		"/>
		<path class="st0" d="M40.1,94.9C40.1,94.9,40.1,94.9,40.1,94.9L40.1,94.9C40.1,94.8,40.1,94.9,40.1,94.9z"/>
		<path class="st0" d="M40.1,95L40.1,95L40.1,95z"/>
		<path class="st0" d="M40.1,95L40.1,95z"/>
		<path class="st0" d="M40.2,95.1L40.2,95.1L40.2,95.1C40.2,95.1,40.2,95.1,40.2,95.1z"/>
		<path class="st0" d="M40.2,95.1L40.2,95.1z"/>
		<path class="st0" d="M40.2,95.1L40.2,95.1L40.2,95.1C40.2,95.1,40.2,95.1,40.2,95.1z"/>
		<path class="st0" d="M40.2,95L40.2,95C40.2,95,40.2,95,40.2,95z"/>
		<path class="st0" d="M40.2,94.9L40.2,94.9z"/>
		<path class="st0" d="M40.2,95.2L40.2,95.2L40.2,95.2C40.2,95.2,40.2,95.2,40.2,95.2z"/>
		<path class="st0" d="M40.2,95.2L40.2,95.2C40.2,95.2,40.2,95.2,40.2,95.2z"/>
		<path class="st0" d="M40.2,95.1L40.2,95.1L40.2,95.1z"/>
		<polygon class="st0" points="40.2,95.3 40.2,95.3 40.2,95.3 		"/>
		<path class="st0" d="M40.2,95.4L40.2,95.4L40.2,95.4L40.2,95.4z"/>
		<path class="st0" d="M40.2,95.5L40.2,95.5L40.2,95.5z"/>
		<path class="st0" d="M40.2,95.3L40.2,95.3L40.2,95.3z"/>
		<path class="st0" d="M40.3,95.3L40.3,95.3L40.3,95.3z"/>
		<path class="st0" d="M40.2,95.3"/>
		<path class="st0" d="M40.2,95.2L40.2,95.2C40.2,95.2,40.3,95.2,40.2,95.2z"/>
		<path class="st0" d="M40.3,95.3L40.3,95.3L40.3,95.3z"/>
		<polygon class="st0" points="40.3,95.3 40.3,95.3 40.3,95.3 		"/>
		<path class="st0" d="M40.3,95.4L40.3,95.4L40.3,95.4C40.3,95.4,40.3,95.4,40.3,95.4z"/>
		<path class="st0" d="M40.3,95.3L40.3,95.3z"/>
		<polygon class="st0" points="40.3,95.6 40.3,95.6 40.3,95.6 		"/>
		<path class="st0" d="M40.3,95.4L40.3,95.4L40.3,95.4z"/>
		<path class="st0" d="M40.3,95.5L40.3,95.5C40.3,95.5,40.3,95.5,40.3,95.5z"/>
		<path class="st0" d="M40.3,95.4"/>
		<path class="st0" d="M40.3,95.4L40.3,95.4z"/>
		<path class="st0" d="M40.4,95.6C40.4,95.6,40.4,95.6,40.4,95.6c0-0.1-0.1-0.1-0.1-0.1s0,0,0,0s0-0.1,0-0.1s0,0,0,0.1
			S40.3,95.6,40.4,95.6L40.4,95.6C40.4,95.6,40.4,95.6,40.4,95.6z"/>
		<path class="st0" d="M40.3,95.5L40.3,95.5L40.3,95.5L40.3,95.5L40.3,95.5L40.3,95.5z"/>
		<path class="st0" d="M40.3,95.5C40.3,95.5,40.3,95.5,40.3,95.5C40.4,95.5,40.3,95.5,40.3,95.5L40.3,95.5L40.3,95.5L40.3,95.5
			L40.3,95.5L40.3,95.5L40.3,95.5L40.3,95.5L40.3,95.5z"/>
		<path class="st0" d="M40.3,95.2"/>
		<path class="st0" d="M40.3,95.2L40.3,95.2L40.3,95.2L40.3,95.2L40.3,95.2C40.3,95.2,40.3,95.2,40.3,95.2L40.3,95.2z"/>
		<path class="st0" d="M40.3,95.3L40.3,95.3L40.3,95.3L40.3,95.3C40.3,95.3,40.3,95.3,40.3,95.3z"/>
		<polygon class="st0" points="40.3,95.6 40.2,95.6 40.3,95.6 		"/>
		<polygon class="st0" points="40.3,95.7 40.2,95.7 40.3,95.7 		"/>
		<path class="st0" d="M39.6,96.7C39.6,96.7,39.5,96.6,39.6,96.7L39.6,96.7L39.6,96.7z"/>
		<path class="st0" d="M37.1,96.3L37.1,96.3C37.1,96.3,37.1,96.3,37.1,96.3z"/>
		<path class="st0" d="M40.1,96.2L40.1,96.2C40.1,96.2,40.2,96.2,40.1,96.2z"/>
		<path class="st0" d="M37.9,96.5L37.9,96.5L37.9,96.5z"/>
		<path class="st0" d="M40.1,96.3L40.1,96.3L40.1,96.3C40.1,96.3,40.1,96.3,40.1,96.3z"/>
		<path class="st0" d="M36.9,94.2L36.9,94.2z"/>
		<path class="st0" d="M37.3,93.7L37.3,93.7z"/>
		<path class="st0" d="M40.2,95.9"/>
		<path class="st0" d="M40.3,95.8L40.3,95.8z"/>
		<path class="st0" d="M40.2,96.5"/>
		<path class="st0" d="M40.2,95.9L40.2,95.9z"/>
		<path class="st0" d="M40.2,95.9L40.2,95.9C40.2,95.9,40.2,95.9,40.2,95.9z"/>
		<path class="st0" d="M40.2,95.9L40.2,95.9L40.2,95.9z"/>
		<path class="st0" d="M36.9,95.3"/>
		<path class="st0" d="M40.2,96L40.2,96C40.2,96,40.2,96,40.2,96z M40.2,96L40.2,96L40.2,96z M37.1,95.1L37.1,95.1
			C37.1,95.1,37.1,95.1,37.1,95.1L37.1,95.1z"/>
		<polygon class="st0" points="37.2,96.3 37.2,96.3 37.1,96.3 		"/>
		<path class="st0" d="M40.2,96.8L40.2,96.8L40.2,96.8z"/>
		<path class="st0" d="M40.2,95.8L40.2,95.8L40.2,95.8z"/>
		<path class="st0" d="M40.4,95.5L40.4,95.5C40.4,95.5,40.4,95.5,40.4,95.5z"/>
		<path class="st0" d="M40.3,95.7L40.3,95.7L40.3,95.7C40.3,95.7,40.3,95.7,40.3,95.7z"/>
		<path class="st0" d="M40.3,95.7L40.3,95.7C40.3,95.7,40.3,95.7,40.3,95.7z"/>
		<path class="st0" d="M40.2,95.9L40.2,95.9C40.2,95.9,40.2,96,40.2,95.9z"/>
		<polygon class="st0" points="40.4,95.7 40.4,95.7 40.4,95.7 		"/>
		<path class="st0" d="M40.4,95.9L40.4,95.9L40.4,95.9C40.4,95.9,40.4,95.9,40.4,95.9z"/>
		<path class="st0" d="M40.4,95.8L40.4,95.8z"/>
		<polygon class="st0" points="40.4,95.8 40.4,95.8 40.4,95.8 		"/>
		<path class="st0" d="M40.3,96.2L40.3,96.2L40.3,96.2z"/>
		<path class="st0" d="M40.4,96.2L40.4,96.2L40.4,96.2z"/>
		<path class="st0" d="M40.4,96.3C40.4,96.3,40.4,96.3,40.4,96.3S40.4,96.2,40.4,96.3z"/>
		<polygon class="st0" points="40,96.7 40,96.7 40,96.6 		"/>
		<path class="st0" d="M39.7,97.2C39.8,97.2,39.7,97.1,39.7,97.2S39.7,97.2,39.7,97.2S39.7,97.1,39.7,97.2z"/>
		<path class="st0" d="M39.7,97.1L39.7,97.1L39.7,97.1z"/>
		<polygon class="st0" points="37.3,93.6 37.4,93.6 37.3,93.6 		"/>
		<path class="st0" d="M37.4,93.6L37.4,93.6z"/>
		<path class="st0" d="M37.2,96.6L37.2,96.6C37.2,96.6,37.3,96.6,37.2,96.6z"/>
		<path class="st0" d="M54.5,103L54.5,103z"/>
		<polygon class="st0" points="54.8,102.7 54.8,102.7 54.8,102.7 		"/>
		<path class="st0" d="M55,102.5c0,0-0.1,0.1-0.1,0.1l0,0l0,0C54.9,102.6,54.9,102.5,55,102.5z"/>
		<path class="st0" d="M55.1,102.4L55.1,102.4L55.1,102.4z"/>
		<path class="st0" d="M55.1,102.4L55.1,102.4z"/>
		<path class="st0" d="M55.2,102.3L55.2,102.3L55.2,102.3C55.2,102.3,55.2,102.2,55.2,102.3z"/>
		<path class="st0" d="M55.2,102.2L55.2,102.2C55.2,102.2,55.2,102.2,55.2,102.2z"/>
		<path class="st0" d="M55.2,102.3L55.2,102.3L55.2,102.3C55.2,102.3,55.2,102.3,55.2,102.3z"/>
		<path class="st0" d="M55.1,102.3L55.1,102.3C55.1,102.3,55.1,102.4,55.1,102.3z"/>
		<path class="st0" d="M55,102.4L55,102.4L55,102.4L55,102.4z"/>
		<path class="st0" d="M55.4,102.1L55.4,102.1L55.4,102.1C55.4,102.1,55.4,102.1,55.4,102.1z"/>
		<path class="st0" d="M55.3,102.1L55.3,102.1C55.3,102.1,55.3,102.1,55.3,102.1z"/>
		<polygon class="st0" points="55.2,102.2 55.1,102.3 55.2,102.2 		"/>
		<polygon class="st0" points="55.5,101.9 55.5,102 55.5,101.9 		"/>
		<path class="st0" d="M55.6,101.8L55.6,101.8L55.6,101.8C55.6,101.8,55.6,101.8,55.6,101.8z"/>
		<path class="st0" d="M55.7,101.7L55.7,101.7C55.7,101.7,55.7,101.7,55.7,101.7z"/>
		<path class="st0" d="M55.4,102L55.4,102L55.4,102z"/>
		<path class="st0" d="M55.4,101.9L55.4,101.9L55.4,101.9z"/>
		<path class="st0" d="M55.4,102L55.4,102z"/>
		<path class="st0" d="M55.3,102.1C55.3,102.1,55.3,102,55.3,102.1S55.3,102.1,55.3,102.1z"/>
		<path class="st0" d="M55.4,102L55.4,102L55.4,102z"/>
		<polygon class="st0" points="55.4,101.9 55.4,102 55.4,102 		"/>
		<path class="st0" d="M55.6,101.8L55.6,101.8L55.6,101.8C55.5,101.8,55.6,101.8,55.6,101.8z"/>
		<path class="st0" d="M55.5,101.9"/>
		<polygon class="st0" points="55.8,101.5 55.8,101.5 55.8,101.5 		"/>
		<path class="st0" d="M55.5,101.8L55.5,101.8L55.5,101.8z"/>
		<path class="st0" d="M55.7,101.7L55.7,101.7C55.7,101.7,55.7,101.7,55.7,101.7z"/>
		<path class="st0" d="M55.5,101.8L55.5,101.8z"/>
		<path class="st0" d="M55.5,101.8L55.5,101.8L55.5,101.8z"/>
		<path class="st0" d="M55.7,101.3c0,0,0,0.1,0,0.1s0.1,0.1,0.1,0S55.8,101.5,55.7,101.3C55.8,101.3,55.7,101.5,55.7,101.3
			C55.7,101.3,55.7,101.4,55.7,101.3c0.1-0.1,0-0.1,0-0.1L55.7,101.3C55.8,101.3,55.7,101.3,55.7,101.3z"/>
		<path class="st0" d="M55.7,101.6L55.7,101.6L55.7,101.6L55.7,101.6L55.7,101.6L55.7,101.6z"/>
		<path class="st0" d="M55.7,101.7C55.7,101.7,55.7,101.6,55.7,101.7C55.7,101.6,55.7,101.7,55.7,101.7
			C55.7,101.7,55.7,101.7,55.7,101.7L55.7,101.7L55.7,101.7L55.7,101.7L55.7,101.7L55.7,101.7L55.7,101.7L55.7,101.7z"/>
		<path class="st0" d="M55.3,102"/>
		<path class="st0" d="M55.3,102L55.3,102L55.3,102L55.3,102L55.3,102L55.3,102L55.3,102z"/>
		<path class="st0" d="M55.5,101.8L55.5,101.8L55.5,101.8L55.5,101.8C55.5,101.7,55.5,101.8,55.5,101.8z"/>
		<polygon class="st0" points="55.8,101.5 55.8,101.5 55.8,101.5 		"/>
		<polygon class="st0" points="55.9,101.4 55.9,101.4 55.9,101.4 		"/>
		<path class="st0" d="M58.5,96.1L58.5,96.1z"/>
		<path class="st0" d="M58.5,96.2L58.5,96.2z"/>
		<path class="st0" d="M57.4,99.3C57.4,99.3,57.5,99.3,57.4,99.3L57.4,99.3C57.4,99.3,57.4,99.3,57.4,99.3z"/>
		<path class="st0" d="M58,97.6L58,97.6L58,97.6z"/>
		<path class="st0" d="M57.9,97.5L57.9,97.5C58,97.5,57.9,97.5,57.9,97.5z"/>
		<path class="st0" d="M58.8,95.2L58.8,95.2C58.8,95.2,58.8,95.2,58.8,95.2z"/>
		<path class="st0" d="M56.5,100.5C56.5,100.5,56.6,100.5,56.5,100.5C56.6,100.5,56.5,100.5,56.5,100.5z"/>
		<path class="st0" d="M58.9,96.3L58.9,96.3C58.9,96.3,58.9,96.3,58.9,96.3z"/>
		<path class="st0" d="M56.6,100.4L56.6,100.4L56.6,100.4C56.6,100.5,56.6,100.4,56.6,100.4z"/>
		<path class="st0" d="M56.1,101.1L56.1,101.1z"/>
		<path class="st0" d="M56,101.1L56,101.1z"/>
		<path class="st0" d="M56.6,100.1"/>
		<path class="st0" d="M56.1,101.1L56.1,101.1C56.1,101.1,56.1,101.1,56.1,101.1z"/>
		<path class="st0" d="M56.1,101.1L56.1,101.1L56.1,101.1z"/>
		<path class="st0" d="M56.2,101.1L56.2,101.1L56.2,101.1z"/>
		<path class="st0" d="M59.5,93.7L59.5,93.7C59.5,93.7,59.5,93.7,59.5,93.7z"/>
		<polygon class="st0" points="57.3,98.5 57.3,98.6 57.3,98.6 		"/>
		<path class="st0" d="M57.3,98.5C57.3,98.5,57.3,98.5,57.3,98.5l0.1,0.1L57.3,98.5z"/>
		<path class="st0" d="M58.4,96.5L58.4,96.5C58.4,96.4,58.4,96.4,58.4,96.5z M57.9,97.7L57.9,97.7z M56.2,100.9L56.2,100.9
			L56.2,100.9C56.2,100.9,56.2,100.9,56.2,100.9L56.2,100.9z M59.8,93.5L59.8,93.5C59.8,93.5,59.8,93.5,59.8,93.5L59.8,93.5z"/>
		<path class="st0" d="M57.9,97.5L57.9,97.5C57.9,97.5,57.9,97.5,57.9,97.5z"/>
		<path class="st0" d="M56.6,99.8L56.6,99.8C56.6,99.8,56.6,99.7,56.6,99.8z"/>
		<path class="st0" d="M56,101.3L56,101.3L56,101.3C56,101.3,56,101.3,56,101.3z"/>
		<path class="st0" d="M55.6,101.5L55.6,101.5L55.6,101.5C55.6,101.5,55.6,101.5,55.6,101.5z"/>
		<path class="st0" d="M55.9,101.3L55.9,101.3L55.9,101.3C55.9,101.3,55.9,101.3,55.9,101.3z"/>
		<path class="st0" d="M55.8,101.3L55.8,101.3C55.8,101.3,55.8,101.3,55.8,101.3z"/>
		<path class="st0" d="M56.2,101L56.2,101C56.2,101,56.2,100.9,56.2,101z"/>
		<polygon class="st0" points="55.8,101.2 55.8,101.2 55.8,101.2 		"/>
		<path class="st0" d="M56,101L56,101L56,101L56,101z"/>
		<path class="st0" d="M56,101.1L56,101.1L56,101.1z"/>
		<polygon class="st0" points="55.8,101.2 55.9,101.2 55.9,101.1 		"/>
		<path class="st0" d="M56.3,100.5L56.3,100.5L56.3,100.5C56.3,100.5,56.3,100.5,56.3,100.5z"/>
		<path class="st0" d="M56.2,100.6L56.2,100.6L56.2,100.6z"/>
		<path class="st0" d="M56.2,100.5C56.2,100.5,56.2,100.4,56.2,100.5S56.2,100.5,56.2,100.5z"/>
		<polygon class="st0" points="56.8,99.8 56.8,99.8 56.8,99.8 		"/>
		<path class="st0" d="M57,99C57,99,57,99,57,99C57,99.2,57,99.1,57,99C57.1,99.1,57.1,99,57,99z"/>
		<path class="st0" d="M57,99.1L57,99.1L57,99.1z"/>
		<path class="st0" d="M58.2,96.5L58.2,96.5L58.2,96.5z"/>
		<path class="st0" d="M58.6,95.5C58.6,95.5,58.6,95.5,58.6,95.5C58.6,95.6,58.7,95.5,58.6,95.5z"/>
		<path class="st0" d="M58.3,105.6L58.3,105.6z"/>
		<polygon class="st0" points="58.5,105.2 58.5,105.2 58.5,105.2 		"/>
		<path class="st0" d="M58.7,104.9c0,0.1-0.1,0.1-0.1,0.2l0,0l0,0L58.7,104.9z"/>
		<path class="st0" d="M58.8,104.7L58.8,104.7L58.8,104.7z"/>
		<path class="st0" d="M58.8,104.7L58.8,104.7z"/>
		<path class="st0" d="M58.9,104.6L58.9,104.6L58.9,104.6C58.9,104.5,58.9,104.6,58.9,104.6z"/>
		<path class="st0" d="M58.9,104.6C58.9,104.6,58.9,104.7,58.9,104.6C58.8,104.7,58.8,104.7,58.9,104.6z"/>
		<path class="st0" d="M58.7,104.9L58.7,104.9L58.7,104.9C58.7,104.9,58.7,104.9,58.7,104.9z"/>
		<path class="st0" d="M62.8,96.2L62.8,96.2z"/>
		<path class="st0" d="M62.7,96.4L62.7,96.4C62.7,96.4,62.7,96.4,62.7,96.4z"/>
		<path class="st0" d="M61.2,100.4C61.3,100.4,61.4,100.4,61.2,100.4L61.2,100.4C61.3,100.3,61.2,100.3,61.2,100.4z"/>
		<path class="st0" d="M62,98.2L62,98.2L62,98.2z"/>
		<path class="st0" d="M61.9,98.1L61.9,98.1L61.9,98.1z"/>
		<path class="st0" d="M63.3,95.1L63.3,95.1C63.3,95.1,63.3,95.1,63.3,95.1z"/>
		<path class="st0" d="M63.2,96.5L63.2,96.5C63.2,96.5,63.2,96.5,63.2,96.5z"/>
		<path class="st0" d="M65.3,91.1L65.3,91.1z"/>
		<polygon class="st0" points="61.2,99.5 61.2,99.5 61.2,99.5 		"/>
		<path class="st0" d="M61.2,99.4c0,0.1,0,0.1,0,0.1h0.1L61.2,99.4z"/>
		<path class="st0" d="M62.5,96.7L62.5,96.7C62.5,96.6,62.6,96.7,62.5,96.7L62.5,96.7z M61.9,98.3C61.9,98.2,61.9,98.2,61.9,98.3
			C61.9,98.2,61.9,98.2,61.9,98.3L61.9,98.3z"/>
		<path class="st0" d="M61.9,98.1L61.9,98.1C61.9,98.1,61.9,98.1,61.9,98.1z"/>
		<polygon class="st0" points="63.3,95.1 63.3,95.1 63.3,95.1 		"/>
		<path class="st0" d="M60.8,100.1c-0.1,0.1,0,0,0,0.1s0,0,0.1,0S60.9,100.1,60.8,100.1z"/>
		<path class="st0" d="M60.8,100.2L60.8,100.2z"/>
		<path class="st0" d="M62.3,96.8L62.3,96.8L62.3,96.8z"/>
		<polygon class="st0" points="62.8,96.1 62.8,96.1 62.8,96.1 		"/>
		<path class="st0" d="M63,95.5L63,95.5C63,95.6,63.1,95.5,63,95.5z"/>
		<path class="st0" d="M67,98L67,98L67,98z"/>
		<path class="st0" d="M66.9,98.2L66.9,98.2C66.9,98.2,66.9,98.2,66.9,98.2z"/>
		<path class="st0" d="M65.5,101.5C65.5,101.5,65.6,101.5,65.5,101.5L65.5,101.5C65.6,101.5,65.5,101.5,65.5,101.5z"/>
		<path class="st0" d="M66.3,99.7L66.3,99.7L66.3,99.7z"/>
		<path class="st0" d="M66.2,99.6L66.2,99.6z"/>
		<path class="st0" d="M67.4,97.1L67.4,97.1C67.4,97.1,67.4,97.1,67.4,97.1z"/>
		<path class="st0" d="M67.3,98.3L67.3,98.3C67.3,98.3,67.3,98.3,67.3,98.3z"/>
		<path class="st0" d="M69,93.6"/>
		<path class="st0" d="M69.3,92.6L69.3,92.6z"/>
		<path class="st0" d="M68.3,95.6L68.3,95.6C68.3,95.6,68.3,95.5,68.3,95.6z"/>
		<polygon class="st0" points="65.5,100.7 65.5,100.7 65.5,100.7 		"/>
		<path class="st0" d="M65.5,100.6C65.5,100.7,65.5,100.7,65.5,100.6l0.1,0.1L65.5,100.6z"/>
		<path class="st0" d="M66.8,98.4L66.8,98.4C66.8,98.4,66.8,98.4,66.8,98.4z M66.1,99.7L66.1,99.7z M68.7,95.4L68.7,95.4
			C68.7,95.4,68.6,95.4,68.7,95.4z"/>
		<path class="st0" d="M66.2,99.6L66.2,99.6C66.2,99.6,66.2,99.6,66.2,99.6z"/>
		<polygon class="st0" points="67.4,97.1 67.4,97.1 67.4,97.1 		"/>
		<path class="st0" d="M65.1,101.2C65.1,101.2,65.1,101.2,65.1,101.2C65.1,101.4,65.1,101.3,65.1,101.2
			C65.1,101.3,65.2,101.2,65.1,101.2z"/>
		<path class="st0" d="M65.1,101.3L65.1,101.3C65.1,101.3,65.2,101.3,65.1,101.3z"/>
		<polygon class="st0" points="69.4,92.4 69.4,92.3 69.4,92.4 		"/>
		<path class="st0" d="M69.4,92.3L69.4,92.3L69.4,92.3z"/>
		<path class="st0" d="M66.6,98.5L66.6,98.5L66.6,98.5z"/>
		<polygon class="st0" points="66.9,97.9 66.9,97.9 67,97.9 		"/>
		<path class="st0" d="M67.2,97.4C67.2,97.4,67.2,97.4,67.2,97.4C67.2,97.5,67.2,97.4,67.2,97.4z"/>
		<path class="st0" d="M67,106L67,106C66.9,106,67,106,67,106z"/>
		<path class="st0" d="M71,96.6L71,96.6C71,96.6,71,96.6,71,96.6z"/>
		<path class="st0" d="M71.7,93.7L71.7,93.7z"/>
		<path class="st0" d="M69.3,101.8L69.3,101.8C69.3,101.8,69.3,101.8,69.3,101.8z"/>
		<path class="st0" d="M69.8,101.2L69.8,101.2C69.8,101.2,69.8,101.2,69.8,101.2L69.8,101.2z"/>
		<path class="st0" d="M67,106L67,106z"/>
		<line class="st0" x1="71.7" y1="93.1" x2="71.7" y2="93.2"/>
		<path class="st0" d="M71.7,93v-0.1V93z"/>
		<path class="st0" d="M66.3,106.9c0,0.1-0.1,0.1-0.1,0.2C66.3,106.9,66.4,106.9,66.3,106.9z"/>
		<path class="st0" d="M77.2,91.5L77.2,91.5C77.2,91.6,77.2,91.5,77.2,91.5z"/>
		<polygon class="st0" points="77.2,93 77.2,93 77.1,93.2 		"/>
		<polygon class="st0" points="3.5,131.4 3.6,131.2 3.5,131.4 		"/>
		<path class="st0" d="M3.7,131L3.7,131l0.1-0.2L3.7,131z"/>
		<polygon class="st0" points="106.3,164 106.3,164 106.3,164 		"/>
		<polygon class="st0" points="106.3,163.9 106.4,164 106.4,163.6 		"/>
		<polygon class="st0" points="106.4,162.9 106.4,162.9 106.5,162.7 		"/>
		<path class="st0" d="M106.9,158.9C106.9,159.2,106.9,158.9,106.9,158.9z"/>
		<path class="st0" d="M106.7,159.9C106.7,159.9,106.7,159.9,106.7,159.9L106.7,159.9z"/>
		<path class="st0" d="M106.8,159.3l0.1-0.3L106.8,159.3z"/>
		<path class="st0" d="M106.9,159.2v0.2C106.9,159.4,106.8,159.4,106.9,159.2z"/>
		<path class="st0" d="M107,158.6v0.3v-0.1V158.6z"/>
		<path class="st0" d="M106.7,161.1v-0.5C106.6,160.8,106.6,160.9,106.7,161.1C106.6,161.1,106.7,161,106.7,161.1z"/>
		<path class="st0" d="M106.4,162.2v0.3C106.4,162.5,106.4,162.4,106.4,162.2z"/>
		<path class="st0" d="M106.7,159.3l-0.1,0.5c0,0,0,0.1,0,0.1C106.7,159.6,106.7,159.2,106.7,159.3z"/>
		<path class="st0" d="M106.6,159.9v0.4V159.9z"/>
		<polygon class="st0" points="106.5,161.1 106.5,160.9 106.5,160.6 		"/>
		<path class="st0" d="M112.8,161.4L112.8,161.4C112.8,161.5,112.8,161.5,112.8,161.4z"/>
		<path class="st0" d="M113.1,158.6c0-0.1,0.1-0.2,0.1-0.3S113.2,158.3,113.1,158.6z"/>
		<path class="st0" d="M166.9,161.1l-0.2,0.2L166.9,161.1z"/>
		<path class="st0" d="M168.1,159.9L168.1,159.9C168.1,159.9,168.1,159.9,168.1,159.9z"/>
		<path class="st0" d="M192.3,138.8c-0.3,0.2-0.6,0.4-0.6,0.4h0.1C192.1,139,192.2,138.9,192.3,138.8z"/>
		<path class="st0" d="M178.5,150.1L178.5,150.1l0.2-0.2L178.5,150.1z"/>
		<path class="st0" d="M178.4,150.4l-0.4,0.3L178.4,150.4z"/>
		<path class="st0" d="M167.1,160.3c-0.1,0.1-0.1,0.2-0.1,0.2S167.1,160.3,167.1,160.3z"/>
		<path class="st0" d="M188,142.8L188,142.8L188,142.8z"/>
		<path class="st0" d="M187.4,143.3c0.2-0.2,0.4-0.4,0.6-0.5l-0.3,0.1L187.4,143.3z"/>
		<path class="st0" d="M170,158c-0.1,0.2-0.3,0.3-0.4,0.4C169.6,158.3,169.8,158.2,170,158z M179.5,149.3c-0.1,0.1-0.3,0.2-0.4,0.3
			L179.5,149.3z"/>
		<path class="st0" d="M178.4,150.4L178.4,150.4C178.3,150.4,178.3,150.4,178.4,150.4z"/>
		<path class="st0" d="M192.2,139.6c0.6-0.4,0.1-0.1,0.6-0.5c0.1-0.1-0.4,0.3-0.3,0.2C192.2,139.5,192,139.6,192.2,139.6z"/>
		<path class="st0" d="M192.5,139.2l0.2-0.1L192.5,139.2z"/>
		<path class="st0" d="M171,157.2L171,157.2c-0.1,0.1-0.2,0.2-0.3,0.2L171,157.2z"/>
		<polygon class="st0" points="166.6,161.6 166.7,161.5 166.5,161.6 		"/>
		<path class="st0" d="M224.8,155.8L224.8,155.8L224.8,155.8z"/>
		<path class="st0" d="M225.5,155.3L225.5,155.3C225.5,155.3,225.4,155.3,225.5,155.3z"/>
		<path class="st0" d="M231,151.1L231,151.1l0.1-0.1L231,151.1z"/>
		<path class="st0" d="M231,151.3l-0.2,0.1C230.9,151.4,230.9,151.4,231,151.3z"/>
		<path class="st0" d="M220.8,158.1l-0.1,0.1C220.9,158.1,220.8,158.1,220.8,158.1z"/>
		<path class="st0" d="M224.8,155.2C224.7,155.2,224.7,155.2,224.8,155.2C224.7,155.3,224.8,155.2,224.8,155.2z"/>
		<path class="st0" d="M226.5,154.6c-0.1,0.1-0.1,0.1-0.2,0.2C226.3,154.7,226.4,154.7,226.5,154.6L226.5,154.6z M231.5,150.8
			c-0.1,0.1-0.1,0.1-0.2,0.1C231.4,150.9,231.4,150.9,231.5,150.8L231.5,150.8z"/>
		<path class="st0" d="M231,151.3L231,151.3C231,151.3,231,151.3,231,151.3z"/>
		<path class="st0" d="M220.8,158.1L220.8,158.1z"/>
		<path class="st0" d="M227.1,154.4L227.1,154.4c0,0-0.1,0-0.2,0.1L227.1,154.4z"/>
		<polygon class="st0" points="224.6,155.9 224.6,155.9 224.5,155.9 		"/>
		<path class="st0" d="M222.4,157.3l0.3-0.2C222.5,157.2,222.4,157.2,222.4,157.3z"/>
		<path class="st0" d="M200,141.3l-0.1,0.2C200.1,141.3,200,141.4,200,141.3z"/>
		<path class="st0" d="M181.3,156.1L181.3,156.1z"/>
		<path class="st0" d="M175.6,160l0.2-0.2L175.6,160z"/>
		<path class="st0" d="M191.4,148.3L191.4,148.3C191.3,148.5,191.3,148.4,191.4,148.3z"/>
		<path class="st0" d="M190,149.2L190,149.2C189.9,149.3,189.9,149.2,190,149.2z"/>
		<path class="st0" d="M200,141.3L200,141.3L200,141.3z"/>
		<polygon class="st0" points="174.6,160.6 174.4,160.8 174.5,160.7 		"/>
		<path class="st0" d="M174.1,161L174.1,161l-0.2,0.1L174.1,161z"/>
		<polygon class="st0" points="204.6,137.2 204.6,137.1 204.5,137.2 		"/>
		<path class="st0" d="M223.6,167.4L223.6,167.4l0.2-0.1L223.6,167.4z"/>
		<path class="st0" d="M223.6,167.7l-0.3,0.2L223.6,167.7z"/>
		<path class="st0" d="M212.3,181.3l-0.1,0.2C212.4,181.2,212.3,181.3,212.3,181.3z"/>
		<path class="st0" d="M203.5,188.3L203.5,188.3C203.4,188.4,203.4,188.4,203.5,188.3z"/>
		<path class="st0" d="M224.3,166.9c-0.1,0.1-0.2,0.2-0.3,0.2C224.1,167.1,224.2,167,224.3,166.9L224.3,166.9z M202,189h0.1
			C201.8,189,201.9,189,202,189z"/>
		<path class="st0" d="M223.6,167.7C223.6,167.7,223.6,167.7,223.6,167.7C223.5,167.7,223.5,167.7,223.6,167.7z"/>
		<path class="st0" d="M212.3,181.3L212.3,181.3L212.3,181.3z"/>
		<path class="st0" d="M77.3,255l-0.2-0.1L77.3,255z"/>
		<path class="st0" d="M78.6,255.5L78.6,255.5C78.6,255.4,78.6,255.4,78.6,255.5z"/>
		<path class="st0" d="M89.1,260L89.1,260l0.2,0.1L89.1,260z"/>
		<path class="st0" d="M88.8,260.1l-0.3-0.2C88.6,259.9,88.7,260,88.8,260.1z"/>
		<path class="st0" d="M78,254.7c-0.1,0-0.2-0.1-0.2,0S78.1,254.7,78,254.7z"/>
		<path class="st0" d="M80.6,256.2c-0.2,0-0.3-0.1-0.5-0.2C80.3,256.1,80.4,256.1,80.6,256.2L80.6,256.2z M89.9,260.5
			c-0.1-0.1-0.3-0.1-0.4-0.2C89.7,260.4,89.8,260.5,89.9,260.5z"/>
		<path class="st0" d="M88.8,260.1C88.8,260.1,88.8,260.1,88.8,260.1C88.8,260,88.8,260,88.8,260.1z"/>
		<path class="st0" d="M81.4,256.7L81.4,256.7c-0.1-0.1-0.2-0.1-0.3-0.1L81.4,256.7z"/>
		<polygon class="st0" points="76.9,254.9 77,254.9 76.9,254.8 		"/>
		<polygon class="st0" points="219.6,179.9 219.7,179.7 219.5,180.1 		"/>
		<path class="st0" d="M219.3,180.8C219.3,180.6,219.2,180.9,219.3,180.8c-0.1,0.2-0.2,0.4-0.2,0.6
			C219.1,181.2,219.1,181,219.3,180.8z"/>
		<path class="st0" d="M218.9,181.7l0.1-0.3L218.9,181.7z"/>
		<path class="st0" d="M219.8,179.4c0,0.1-0.1,0.2-0.1,0.3l0.1-0.1L219.8,179.4z"/>
		<path class="st0" d="M219.8,179.5L219.8,179.5l-0.1,0.3L219.8,179.5z"/>
		<path class="st0" d="M219.8,179.4L219.8,179.4L219.8,179.4z"/>
		<path class="st0" d="M219.9,179.2l0.1-0.4c0,0,0,0.1,0,0L219.9,179.2z"/>
		<polygon class="st0" points="219.9,179.4 219.9,179.2 219.9,179.4 		"/>
		<path class="st0" d="M219.1,181.1l-0.2,0.5l0.3-0.6C219.2,181,219.2,180.9,219.1,181.1z"/>
		<path class="st0" d="M219.5,180.4L219.5,180.4z"/>
		<path class="st0" d="M219.2,181c0-0.1,0.1-0.2,0.1-0.3C219.4,180.8,219.3,180.9,219.2,181C219.2,181.2,219.2,181,219.2,181z"/>
		<path class="st0" d="M218.7,182.2l0.1-0.3C218.7,182.1,218.7,182.2,218.7,182.2z"/>
		<path class="st0" d="M219.4,180.4L219.4,180.4C219.4,180.5,219.4,180.5,219.4,180.4z"/>
		<path class="st0" d="M219.4,180.4l-0.1,0.2L219.4,180.4L219.4,180.4z"/>
		<path class="st0" d="M220.2,178.5L220.2,178.5C220.2,178.5,220.2,178.6,220.2,178.5z"/>
		<path class="st0" d="M219.5,180.5c-0.1,0.2-0.1,0.4-0.2,0.6c0-0.1,0.1-0.2,0.1-0.3l0,0C219.5,180.4,219.5,180.5,219.5,180.5z"/>
		<path class="st0" d="M218.6,182.8l0.1-0.2l0,0C218.6,182.8,218.5,183,218.6,182.8z"/>
		<path class="st0" d="M247.5,190.5l0.1-0.3C247.4,190.6,247.5,190.4,247.5,190.5z"/>
		<path class="st0" d="M247.5,190.5L247.5,190.5L247.5,190.5z"/>
		<polygon class="st0" points="212.4,186.9 212.4,186.8 212.3,186.9 		"/>
		<path class="st0" d="M212.1,187.1C212.1,187.1,212.1,187.1,212.1,187.1c-0.1,0.1-0.1,0.1-0.2,0.2
			C212,187.2,212.1,187.1,212.1,187.1z"/>
		<path class="st0" d="M211.8,187.3L211.8,187.3L211.8,187.3z"/>
		<path class="st0" d="M212,187.2c0,0.1-0.1,0.1-0.1,0.1L212,187.2C212,187.2,212.1,187.1,212,187.2z"/>
		<polygon class="st0" points="211.3,187.8 211.3,187.8 211.3,187.8 		"/>
		<path class="st0" d="M212.1,187.2C212.1,187.1,212.2,187.1,212.1,187.2L212.1,187.2L212.1,187.2z"/>
		<path class="st0" d="M211.7,187.5L211.7,187.5C211.7,187.4,211.7,187.4,211.7,187.5z"/>
		<path class="st0" d="M211.2,188.1c0.1-0.1,0.1-0.2,0.2-0.2c0.1-0.1,0-0.1-0.1-0.1s0,0-0.1,0.1c0.1,0,0.3-0.2,0.2-0.1
			c-0.1,0.1-0.1,0.1-0.2,0.1c0.1,0-0.2,0.2-0.1,0.2L211.2,188.1C211.2,188,211.2,188.1,211.2,188.1z"/>
		<path class="st0" d="M211.5,187.6L211.5,187.6c-0.1,0-0.1,0.1-0.2,0.1c-0.1,0.1-0.1,0.1-0.1,0.1L211.5,187.6L211.5,187.6z"/>
		<path class="st0" d="M211.8,187.4c0,0.1-0.1,0.1,0,0.1s0.1-0.1,0.1-0.2C211.7,187.6,212,187.3,211.8,187.4l0.1-0.1L211.8,187.4
			L211.8,187.4l-0.2,0.2L211.8,187.4z"/>
		<polygon class="st0" points="211.3,187.8 211.3,187.8 211.2,187.9 		"/>
		<polygon class="st0" points="211.1,188 211.1,188 211,188 		"/>
		<path class="st0" d="M208.6,189.8l-0.2,0.1C208.5,189.9,208.6,189.9,208.6,189.8z"/>
		<path class="st0" d="M208.2,190.1L208.2,190.1l0.2-0.1C208.3,190,208.3,190,208.2,190.1z"/>
		<path class="st0" d="M210.1,188.7C210.2,188.7,210.1,188.7,210.1,188.7z"/>
		<path class="st0" d="M210.4,188.6L210.4,188.6z"/>
		<path class="st0" d="M207.8,190.6L207.8,190.6C207.8,190.6,207.9,190.6,207.8,190.6z"/>
		<path class="st0" d="M210.2,188.7L210.2,188.7L210.2,188.7z"/>
		<path class="st0" d="M210.2,188.7L210.2,188.7L210.2,188.7z"/>
		<path class="st0" d="M210,188.8L210,188.8L210,188.8L210,188.8z"/>
		<path class="st0" d="M209.6,189.1L209.6,189.1C209.5,189.2,209.5,189.2,209.6,189.1z M209.7,189L209.7,189
			C209.7,189.1,209.7,189.1,209.7,189L209.7,189z"/>
		<path class="st0" d="M207.2,191.2L207.2,191.2C207.1,191.2,207.2,191.3,207.2,191.2z"/>
		<path class="st0" d="M210.6,188.3l-0.1,0.1L210.6,188.3C210.6,188.3,210.6,188.3,210.6,188.3z"/>
		<path class="st0" d="M211.6,187.7L211.6,187.7L211.6,187.7C211.6,187.7,211.6,187.8,211.6,187.7z"/>
		<path class="st0" d="M210.8,188.3c0,0,0.1-0.1,0.2-0.1l0,0C210.9,188.2,210.8,188.2,210.8,188.3z"/>
		<path class="st0" d="M211,188.2L211,188.2C211.1,188.1,211,188.1,211,188.2z"/>
		<path class="st0" d="M209.9,188.9L209.9,188.9C209.9,188.9,209.8,189,209.9,188.9z"/>
		<polygon class="st0" points="210.9,188.3 210.8,188.3 210.8,188.4 		"/>
		<path class="st0" d="M210.3,188.8l0.1-0.1l0,0L210.3,188.8z"/>
		<path class="st0" d="M210.4,188.6C210.5,188.6,210.5,188.6,210.4,188.6L210.4,188.6z"/>
		<polygon class="st0" points="210.7,188.5 210.7,188.5 210.6,188.6 		"/>
		<path class="st0" d="M209,189.8l-0.1,0.1c0,0,0,0,0.1,0S209,189.8,209,189.8z"/>
		<path class="st0" d="M209.4,189.5L209.4,189.5L209.4,189.5L209.4,189.5z"/>
		<path class="st0" d="M209,189.8C209,189.8,208.8,190,209,189.8C209,189.9,209.2,189.8,209,189.8z"/>
		<polygon class="st0" points="206.9,191.2 207,191.2 206.9,191.1 		"/>
		<path class="st0" d="M202.3,191.4L202.3,191.4z"/>
		<path class="st0" d="M202.3,191.5L202.3,191.5z"/>
		<path class="st0" d="M202.5,191L202.5,191C202.5,191,202.5,191,202.5,191z"/>
		<path class="st0" d="M202.7,191.7L202.7,191.7L202.7,191.7z"/>
		<path class="st0" d="M203.4,189.7"/>
		<path class="st0" d="M203.7,189.4L203.7,189.4z"/>
		<path class="st0" d="M203,190.5"/>
		<path class="st0" d="M203.3,190.3c0,0-0.1,0-0.1,0l0,0l0,0c0,0,0,0,0,0.1v-0.1c0,0,0,0.1,0,0.1l0,0l0,0c0,0,0-0.1,0-0.1s0,0.1,0,0
			s0,0,0,0.1l0,0l0,0l0,0c0,0-0.1,0-0.1,0.1s0.1,0,0.1,0s-0.1,0-0.1,0.1s0.1,0,0.1,0H203c0,0,0,0,0.1,0s0,0,0,0.1l0,0
			c-0.1,0,0.1,0.1,0,0.1v-0.1l0,0l0,0c0,0,0,0,0,0.1s0.1,0,0.1,0.1s0,0-0.1,0s0,0,0,0l0,0c0,0,0,0,0,0.1l0,0v0.1l0,0l0,0
			c0,0-0.1,0-0.1-0.1v0.2c0,0-0.1,0-0.1,0s0,0.1,0,0.1l0,0c0,0-0.1,0,0,0.1h-0.1c0,0,0.1,0,0.1,0.1s-0.1,0-0.1,0s0.1,0.1,0,0.1
			s-0.5-0.1-0.5-0.1L203.3,190.3z M202.2,191.6L202.2,191.6C202.2,191.6,202.2,191.6,202.2,191.6L202.2,191.6z M203.3,190.5
			L203.3,190.5C203.3,190.5,203.3,190.5,203.3,190.5L203.3,190.5z"/>
		<polygon class="st0" points="202.5,191 202.5,191 202.5,191 		"/>
		<polygon class="st0" points="203.7,189.3 203.7,189.3 203.7,189.3 		"/>
		<path class="st0" d="M203.7,189.2L203.7,189.2L203.7,189.2z"/>
		<path class="st0" d="M202.1,191.6L202.1,191.6z"/>
		<polygon class="st0" points="202.3,191.4 202.3,191.4 202.3,191.4 		"/>
		<path class="st0" d="M202.3,191.1L202.3,191.1C202.3,191.1,202.4,191.2,202.3,191.1z"/>
		<path class="st0" d="M210.7,185.8L210.7,185.8C210.7,185.8,210.7,185.8,210.7,185.8z"/>
		<path class="st0" d="M210.9,185.6L210.9,185.6C210.9,185.6,210.9,185.6,210.9,185.6z"/>
		<path class="st0" d="M212.1,184.1L212.1,184.1L212.1,184.1z"/>
		<path class="st0" d="M212.2,184.3L212.2,184.3L212.2,184.3z"/>
		<path class="st0" d="M209.8,186.7L209.8,186.7C209.8,186.7,209.8,186.7,209.8,186.7z"/>
		<path class="st0" d="M210.5,185.4L210.5,185.4C210.5,185.4,210.5,185.4,210.5,185.4z"/>
		<path class="st0" d="M206.1,189.5L206.1,189.5z"/>
		<path class="st0" d="M205,190.2L205,190.2z"/>
		<path class="st0" d="M208.1,187.9L208.1,187.9C208.1,187.9,208.1,187.9,208.1,187.9z"/>
		<path class="st0" d="M211.2,185.4C211.2,185.4,211.2,185.5,211.2,185.4C211.1,185.4,211.1,185.4,211.2,185.4L211.2,185.4z
			 M212.3,184.1C212.3,184.1,212.3,184.1,212.3,184.1C212.3,184.1,212.3,184.1,212.3,184.1z M207.7,187.9L207.7,187.9
			C207.7,187.9,207.7,188,207.7,187.9L207.7,187.9z"/>
		<path class="st0" d="M212.2,184.3L212.2,184.3C212.2,184.3,212.2,184.3,212.2,184.3z"/>
		<polygon class="st0" points="209.8,186.6 209.8,186.6 209.8,186.7 		"/>
		<polygon class="st0" points="204.9,190.3 204.8,190.4 204.8,190.4 		"/>
		<path class="st0" d="M204.8,190.4L204.8,190.4L204.8,190.4z"/>
		<path class="st0" d="M211.4,185.4L211.4,185.4C211.4,185.4,211.4,185.4,211.4,185.4L211.4,185.4z"/>
		<polygon class="st0" points="210.7,185.9 210.7,185.9 210.7,185.9 		"/>
		<path class="st0" d="M210.2,186.4L210.2,186.4C210.3,186.3,210.2,186.4,210.2,186.4z"/>
		<path class="st0" d="M88.5,255.4c-0.2-0.1-0.3-0.2-0.3-0.2v0.1L88.5,255.4z"/>
		<polygon class="st0" points="85.5,254.6 85.5,254.6 85.5,254.6 		"/>
		<path class="st0" d="M85.1,254.4c0.1,0,0.3,0.1,0.4,0.1l-0.1-0.2L85.1,254.4z"/>
		<path class="st0" d="M88.1,255.7c0.3,0.2,0.1,0,0.4,0.1c0.1,0-0.2-0.1-0.2-0.1C88.1,255.7,88,255.6,88.1,255.7z"/>
		<path class="st0" d="M88.3,255.7h0.1H88.3z"/>
		<path class="st0" d="M78.3,254.2L78.3,254.2z"/>
		<path class="st0" d="M226.8,179.2c0-0.1-0.1,0.2,0.1-0.2l0,0L226.8,179.2z"/>
		<path class="st0" d="M226.9,179"/>
		<path class="st0" d="M226.6,179.6C226.7,179.5,226.8,179.3,226.6,179.6C226.9,179.1,226.9,179.1,226.6,179.6z"/>
		<path class="st0" d="M227.2,178.3l0.1-0.2l0.1-0.2C227.3,178,227.2,178.3,227.2,178.3z"/>
		<path class="st0" d="M225.2,182.8"/>
		<path class="st0" d="M224.9,183.4C224.9,183.3,224.8,183.6,224.9,183.4c-0.1,0.2-0.2,0.4-0.2,0.5
			C224.8,183.8,224.8,183.6,224.9,183.4z"/>
		<path class="st0" d="M224.5,184.2l0.1-0.3C224.6,184.1,224.6,184.1,224.5,184.2z"/>
		<path class="st0" d="M224.8,183.7c-0.1,0.1-0.1,0.3-0.2,0.4L224.8,183.7C224.9,183.6,224.9,183.5,224.8,183.7z"/>
		<path class="st0" d="M225.1,183.1L225.1,183.1C225.1,183.1,225.1,183.1,225.1,183.1z"/>
		<polygon class="st0" points="223.8,185.7 223.8,185.7 223.8,185.7 		"/>
		<path class="st0" d="M224.9,183.6c0.1-0.1,0.1-0.2,0.1-0.3L224.9,183.6C224.9,183.6,224.9,183.6,224.9,183.6z"/>
		<path class="st0" d="M224.3,184.7l0.1-0.2C224.4,184.5,224.4,184.6,224.3,184.7z"/>
		<path class="st0" d="M225.1,183.1L225.1,183.1C225.1,183.1,225.1,183.2,225.1,183.1z"/>
		<path class="st0" d="M225.1,183.1l-0.1,0.2L225.1,183.1L225.1,183.1z"/>
		<path class="st0" d="M224.1,185.1l0.1-0.1c-0.1,0.1-0.1,0.2-0.2,0.4c0,0.1-0.1,0.2-0.1,0.3L224.1,185.1L224.1,185.1z"/>
		<path class="st0" d="M224.4,184.5c0,0.1-0.2,0.4,0,0.2c0.2-0.4,0.1-0.3,0.2-0.5C224.4,184.8,224.7,184.1,224.4,184.5l0.2-0.3
			L224.4,184.5L224.4,184.5L224.4,184.5L224.4,184.5C224.4,184.6,224.5,184.5,224.4,184.5L224.4,184.5c0,0.2-0.1,0.4-0.2,0.6
			C224.2,184.9,224.3,184.8,224.4,184.5z"/>
		<path class="st0" d="M225.1,183.2l-0.2,0.5l0.1-0.2l0,0C225.2,183.1,225.1,183.2,225.1,183.2z"/>
		<path class="st0" d="M222.1,188.9C222.2,188.8,222.1,188.9,222.1,188.9z"/>
		<path class="st0" d="M222.2,188.7l-0.1,0.2L222.2,188.7z"/>
		<path class="st0" d="M222.2,188.7l0.1-0.1L222.2,188.7z"/>
		<path class="st0" d="M222,189.1l0.1-0.2l0,0L222,189.1z"/>
		<path class="st0" d="M221.3,190.3L221.3,190.3C221.2,190.6,221.3,190.5,221.3,190.3L221.3,190.3z M221.6,189.9L221.6,189.9
			c0,0.1-0.1,0.2-0.1,0.2C221.5,190.1,221.6,190,221.6,189.9L221.6,189.9z"/>
		<path class="st0" d="M224.3,185.1l0.1-0.1l0,0C224.2,185.2,224.2,185.3,224.3,185.1z"/>
		<path class="st0" d="M221.9,189.3c0.1-0.1,0-0.1,0-0.1S221.6,189.9,221.9,189.3z"/>
		<path class="st0" d="M219.9,188L219.9,188L219.9,188z"/>
		<path class="st0" d="M220.1,187.6L220.1,187.6C220.1,187.6,220.1,187.6,220.1,187.6z"/>
		<path class="st0" d="M222.8,180.1c-0.1,0.1-0.1,0.1-0.1,0.1h0.1C222.7,180.2,222.7,180.2,222.8,180.1z"/>
		<path class="st0" d="M221.4,184.3L221.4,184.3L221.4,184.3L221.4,184.3z"/>
		<path class="st0" d="M221.5,184.4L221.5,184.4C221.5,184.5,221.5,184.5,221.5,184.4z"/>
		<path class="st0" d="M218.9,190.1L218.9,190.1C219,190.1,218.9,190.1,218.9,190.1z"/>
		<path class="st0" d="M219.6,187.6C219.6,187.6,219.6,187.6,219.6,187.6C219.6,187.7,219.6,187.6,219.6,187.6z"/>
		<path class="st0" d="M223.9,177.6L223.9,177.6C223.9,177.6,223.9,177.6,223.9,177.6z"/>
		<path class="st0" d="M220.4,187c0,0,0,0.1,0,0.1S220.3,187.1,220.4,187L220.4,187z M221.6,184c0,0,0,0.1-0.1,0.1
			C221.5,184.1,221.6,184.1,221.6,184L221.6,184z"/>
		<path class="st0" d="M221.5,184.4L221.5,184.4C221.5,184.4,221.5,184.4,221.5,184.4z"/>
		<path class="st0" d="M218.9,190.1"/>
		<path class="st0" d="M223.8,178.3L223.8,178.3C223.8,178.4,223.8,178.4,223.8,178.3z"/>
		<polygon class="st0" points="223.6,178.5 223.6,178.5 223.6,178.4 		"/>
		<path class="st0" d="M223.2,180.3L223.2,180.3L223.2,180.3z"/>
		<path class="st0" d="M220.6,186.8L220.6,186.8C220.6,186.8,220.6,186.8,220.6,186.8L220.6,186.8z"/>
		<polygon class="st0" points="219.9,188.1 219.9,188.1 219.9,188.1 		"/>
		<path class="st0" d="M219.4,189.3c0-0.1,0-0.1,0.1-0.1C219.4,189.3,219.3,189.3,219.4,189.3z"/>
		<path class="st0" d="M229.4,179.2"/>
		<path class="st0" d="M229.7,178.8C229.7,178.8,229.7,178.8,229.7,178.8L229.7,178.8z"/>
		<path class="st0" d="M227.5,183.9L227.5,183.9C227.5,183.9,227.5,183.9,227.5,183.9z"/>
		<path class="st0" d="M229.5,179.1l-0.1,0.1L229.5,179.1z"/>
		<path class="st0" d="M229.5,179.1L229.5,179.1C229.5,179,229.5,179,229.5,179.1z"/>
		<path class="st0" d="M229.4,179.4l0.1-0.1l0,0L229.4,179.4z"/>
		<polygon class="st0" points="224.1,191.4 224.1,191.4 224.1,191.4 		"/>
		<path class="st0" d="M229,180.3L229,180.3C228.9,180.5,228.9,180.4,229,180.3z M229.2,180L229.2,180c0,0,0,0.1-0.1,0.2
			C229.1,180.1,229.1,180.1,229.2,180L229.2,180z"/>
		<path class="st0" d="M227.1,185.3c0,0,0,0.1-0.1,0.1C227,185.4,227,185.4,227.1,185.3z"/>
		<path class="st0" d="M229.9,178.2l-0.1,0.2C229.8,178.4,229.8,178.3,229.9,178.2C229.9,178.2,229.8,178.3,229.9,178.2z"/>
		<path class="st0" d="M229.3,179.6c0-0.1,0-0.1,0-0.1S229.1,180,229.3,179.6z"/>
		<path class="st0" d="M229.6,179.1l0.1-0.2v-0.1C229.7,179,229.6,179.1,229.6,179.1z"/>
		<path class="st0" d="M229.8,178.9c0-0.1,0.1-0.1,0.1-0.2L229.8,178.9z"/>
		<polygon class="st0" points="230,178.3 230,178.4 229.9,178.5 		"/>
		<polygon class="st0" points="226.7,185.6 226.8,185.6 226.7,185.5 		"/>
		<path class="st0" d="M231.7,187L231.7,187C231.7,187,231.8,186.9,231.7,187z"/>
		<path class="st0" d="M231,188.8l-0.1,0.2C230.9,189,230.9,189,231,188.8z"/>
		<polygon class="st0" points="230.6,189.3 230.7,189.2 230.6,189.2 		"/>
		<path class="st0" d="M237.9,180.1L237.9,180.1C237.9,180.1,237.9,180.1,237.9,180.1z"/>
		<path class="st0" d="M238.1,179.6L238.1,179.6C238.1,179.6,238.1,179.7,238.1,179.6z"/>
		<path class="st0" d="M237.5,179.7L237.5,179.7C237.5,179.8,237.5,179.7,237.5,179.7z"/>
		<path class="st0" d="M232.4,189.9L232.4,189.9L232.4,189.9z"/>
		<path class="st0" d="M230.9,192L230.9,192L230.9,192z"/>
		<path class="st0" d="M238.3,179c0,0,0,0.1,0,0.1S238.3,179.1,238.3,179L238.3,179z"/>
		<path class="st0" d="M238.6,178.8L238.6,178.8C238.6,178.8,238.6,178.8,238.6,178.8L238.6,178.8z"/>
		<polygon class="st0" points="237.9,180.2 237.9,180.2 237.8,180.2 		"/>
		<path class="st0" d="M239.9,180.3v-0.1V180.3z"/>
		<path class="st0" d="M245.2,180.4L245,181C245.1,180.8,245.2,180.6,245.2,180.4z"/>
		<path class="st0" d="M244.8,181.6v-0.1c0-0.2,0.1-0.3,0.2-0.5C244.9,181.2,244.9,181.4,244.8,181.6z"/>
		<path class="st0" d="M244.5,183.2L244.5,183.2C244.5,183.2,244.5,183.2,244.5,183.2z"/>
		<path class="st0" d="M246,177.5L246,177.5C245.9,177.8,246,177.7,246,177.5z M246.2,177L246.2,177c0,0.1,0,0.2-0.1,0.3
			C246.1,177.2,246.2,177.1,246.2,177L246.2,177z"/>
		<path class="st0" d="M243.9,185.4c0,0.1-0.1,0.1-0.1,0.2C243.8,185.6,243.9,185.6,243.9,185.4z"/>
		<path class="st0" d="M245.6,179.7l-0.1,0.4c0,0,0-0.1,0.1-0.2S245.6,179.6,245.6,179.7z"/>
		<path class="st0" d="M246,178.4c0,0.1,0,0.1-0.1,0.2l0,0L246,178.4z"/>
		<path class="st0" d="M245.7,179.7C245.7,179.7,245.6,180.3,245.7,179.7C245.7,179.7,245.8,179.3,245.7,179.7z"/>
		<polygon class="st0" points="243.6,186 243.6,185.9 243.5,185.8 		"/>
		<path class="st0" d="M242,181.7L242,181.7C242,181.7,242,181.7,242,181.7z"/>
		<polygon class="st0" points="242.1,181.1 242.1,181.1 242.2,181 		"/>
		<path class="st0" d="M242.3,180.5c0,0.1-0.1,0.2-0.1,0.3l0,0l0,0C242.3,180.7,242.3,180.6,242.3,180.5z"/>
		<path class="st0" d="M242.5,180.2C242.5,180.2,242.5,180.1,242.5,180.2L242.5,180.2L242.5,180.2z"/>
		<path class="st0" d="M242.4,180.3C242.4,180.3,242.4,180.3,242.4,180.3z"/>
		<path class="st0" d="M242.5,180L242.5,180C242.5,180.1,242.5,180,242.5,180C242.5,180,242.6,179.9,242.5,180z"/>
		<path class="st0" d="M242.5,179.9L242.5,179.9C242.5,179.9,242.5,179.9,242.5,179.9z"/>
		<path class="st0" d="M242.5,180L242.5,180L242.5,180L242.5,180z"/>
		<path class="st0" d="M242.5,180.1C242.5,180.1,242.5,180.2,242.5,180.1C242.4,180.2,242.4,180.2,242.5,180.1z"/>
		<path class="st0" d="M242.3,180.5L242.3,180.5v0.1C242.3,180.6,242.3,180.5,242.3,180.5z"/>
		<path class="st0" d="M242.7,179.5L242.7,179.5L242.7,179.5C242.7,179.5,242.7,179.5,242.7,179.5z"/>
		<path class="st0" d="M242.7,179.5v-0.1C242.6,179.5,242.6,179.5,242.7,179.5z"/>
		<polygon class="st0" points="242.5,179.9 242.5,180 242.5,179.8 		"/>
		<polygon class="st0" points="242.8,179.1 242.8,179.2 242.8,179.1 		"/>
		<path class="st0" d="M242.9,178.9L242.9,178.9c0-0.1,0-0.1,0-0.2C242.9,178.8,242.9,178.8,242.9,178.9z"/>
		<path class="st0" d="M242.9,178.6L242.9,178.6C242.9,178.7,242.9,178.6,242.9,178.6z"/>
		<path class="st0" d="M242.7,179.2C242.7,179.2,242.7,179.2,242.7,179.2L242.7,179.2L242.7,179.2z"/>
		<path class="st0" d="M242.7,179.2L242.7,179.2L242.7,179.2L242.7,179.2z"/>
		<path class="st0" d="M242.7,179.2L242.7,179.2z"/>
		<path class="st0" d="M242.6,179.6C242.6,179.6,242.6,179.5,242.6,179.6C242.6,179.7,242.6,179.6,242.6,179.6z"/>
		<path class="st0" d="M242.7,179.3L242.7,179.3L242.7,179.3L242.7,179.3z"/>
		<polygon class="st0" points="242.7,179.2 242.7,179.3 242.7,179.2 		"/>
		<path class="st0" d="M242.9,178.8c0,0,0-0.1,0-0.1V178.8C242.8,178.8,242.8,178.8,242.9,178.8z"/>
		<path class="st0" d="M242.8,179L242.8,179L242.8,179z"/>
		<polygon class="st0" points="243,178.1 243,178.1 243,178.1 		"/>
		<path class="st0" d="M242.8,178.8c0,0,0,0.1,0,0.1V178.8L242.8,178.8z"/>
		<path class="st0" d="M243,178.5L243,178.5C243,178.5,243,178.5,243,178.5z"/>
		<path class="st0" d="M242.8,179L242.8,179z"/>
		<path class="st0" d="M242.8,179L242.8,179z"/>
		<path class="st0" d="M242.9,177.9c0,0.1,0,0.1,0,0.2c0,0.1,0.1,0.1,0.1,0s0,0,0-0.1s-0.1,0.2-0.1,0.1s0-0.1,0.1-0.2
			S243,177.8,242.9,177.9L242.9,177.9C243,178,242.9,177.9,242.9,177.9z"/>
		<path class="st0" d="M243,178.3L243,178.3c0,0,0-0.1,0.1-0.1c0-0.1,0-0.1,0-0.1L243,178.3L243,178.3z"/>
		<path class="st0" d="M242.9,178.5C242.9,178.5,242.9,178.4,242.9,178.5C242.9,178.5,242.9,178.6,242.9,178.5
			C242.9,178.4,242.9,178.7,242.9,178.5v0.1V178.5L242.9,178.5C242.9,178.5,242.9,178.5,242.9,178.5L242.9,178.5v-0.2
			C242.9,178.3,242.9,178.4,242.9,178.5z"/>
		<path class="st0" d="M242.6,179.5L242.6,179.5z"/>
		<path class="st0" d="M242.6,179.4C242.6,179.4,242.6,179.4,242.6,179.4C242.6,179.5,242.6,179.5,242.6,179.4
			C242.6,179.5,242.6,179.6,242.6,179.4L242.6,179.4C242.6,179.4,242.6,179.3,242.6,179.4C242.6,179.3,242.6,179.3,242.6,179.4z"/>
		<path class="st0" d="M242.8,179v-0.2V179L242.8,179C242.7,179,242.7,178.9,242.8,179z"/>
		<polygon class="st0" points="243,178.1 243.1,178.1 243.1,178 		"/>
		<polygon class="st0" points="243.1,177.9 243.1,177.9 243.1,177.9 		"/>
		<path class="st0" d="M243.3,177.1"/>
		<path class="st0" d="M243.1,177.3L243.1,177.3z"/>
		<path class="st0" d="M243.3,177.1L243.3,177.1L243.3,177.1z"/>
		<path class="st0" d="M243.3,177.1L243.3,177.1C243.3,177.1,243.3,177.2,243.3,177.1z"/>
		<path class="st0" d="M243.3,177C243.3,177,243.3,177,243.3,177L243.3,177L243.3,177z"/>
		<path class="st0" d="M243.5,176.6L243.5,176.6C243.4,176.5,243.4,176.6,243.5,176.6L243.5,176.6z M243.5,176.8L243.5,176.8
			C243.4,176.7,243.4,176.7,243.5,176.8C243.5,176.7,243.4,176.7,243.5,176.8L243.5,176.8z"/>
		<path class="st0" d="M243.2,177.5v-0.1C243.2,177.5,243.2,177.5,243.2,177.5C243.2,177.5,243.2,177.5,243.2,177.5z"/>
		<path class="st0" d="M242.8,178.3L242.8,178.3L242.8,178.3C242.9,178.3,242.9,178.2,242.8,178.3z"/>
		<path class="st0" d="M243.1,177.6c0,0,0,0.1,0,0.1l0,0C243.1,177.7,243.1,177.7,243.1,177.6z"/>
		<path class="st0" d="M243.1,177.8C243.1,177.8,243.1,177.8,243.1,177.8C243.1,177.9,243,177.8,243.1,177.8z"/>
		<path class="st0" d="M243.3,176.9L243.3,176.9C243.3,176.9,243.4,176.8,243.3,176.9z"/>
		<polygon class="st0" points="243,177.6 243,177.6 243,177.6 		"/>
		<path class="st0" d="M243.1,177.1v0.1l0,0C243.1,177.2,243.2,177.1,243.1,177.1z"/>
		<path class="st0" d="M243.1,177.3C243.1,177.3,243.1,177.3,243.1,177.3C243.1,177.3,243.1,177.3,243.1,177.3z"/>
		<polygon class="st0" points="243,177.5 243,177.5 243.1,177.4 		"/>
		<path class="st0" d="M244.3,190.8L244.3,190.8z"/>
		<path class="st0" d="M245.8,186.4v0.2V186.4z"/>
		<polygon class="st0" points="246,185.6 246,185.4 246,185.5 		"/>
		<path class="st0" d="M246.1,185.2L246.1,185.2V185V185.2z"/>
		<path class="st0" d="M231.7,135.7L231.7,135.7C231.7,135.8,231.8,135.7,231.7,135.7z"/>
		<polygon class="st0" points="230.5,136.9 230.5,136.9 230.3,137.1 		"/>
		<path class="st0" d="M229.2,138c0.1-0.1,0.4-0.4,0.7-0.6l0,0l0.1-0.1L229.2,138z"/>
		<path class="st0" d="M228.5,138.6c0,0-0.1,0.1,0.2-0.1l0,0L228.5,138.6z"/>
		<path class="st0" d="M228.6,138.5"/>
		<path class="st0" d="M228,139l0.2-0.1C228.2,138.9,228,139,228,139C227.9,139.1,227.9,139,228,139z"/>
		<path class="st0" d="M227.9,139.1l0.1-0.1C227.9,139.1,227.9,139.1,227.9,139.1z"/>
		<path class="st0" d="M228.2,138.9L228,139C228,139,228,139,228.2,138.9L228.2,138.9z"/>
		<path class="st0" d="M228.3,138.8C228.4,138.7,228.5,138.6,228.3,138.8C228.7,138.5,228.6,138.5,228.3,138.8z"/>
		<path class="st0" d="M229.2,138.1l0.1-0.1l0.1-0.1C229.3,138,229.2,138,229.2,138.1z"/>
		<path class="st0" d="M226.9,139.8L226.9,139.8l0.2-0.1L226.9,139.8z"/>
		<path class="st0" d="M227,139.8l-0.2,0.2L227,139.8z"/>
		<polygon class="st0" points="227.9,139.2 228.2,138.9 227.8,139.2 		"/>
		<polygon class="st0" points="226.1,140.4 226.2,140.3 226.1,140.5 		"/>
		<path class="st0" d="M225.6,140.8C225.7,140.7,225.5,140.9,225.6,140.8c-0.1,0.1-0.2,0.2-0.4,0.3
			C225.4,141,225.5,140.9,225.6,140.8z"/>
		<path class="st0" d="M225.1,141.2l0.2-0.1L225.1,141.2z"/>
		<path class="st0" d="M226.5,140.2l-0.2,0.1L226.5,140.2L226.5,140.2z"/>
		<path class="st0" d="M226.4,140.3L226.4,140.3l-0.2,0.1L226.4,140.3z"/>
		<path class="st0" d="M226.5,140.2L226.5,140.2z"/>
		<path class="st0" d="M227.3,139.6c-0.1,0.1-0.3,0.3-0.1,0.1C227.3,139.6,227.2,139.7,227.3,139.6z"/>
		<path class="st0" d="M226.6,140.1l0.2-0.2c0,0-0.1,0,0,0L226.6,140.1z"/>
		<polygon class="st0" points="226.5,140.2 226.6,140.1 226.5,140.2 		"/>
		<path class="st0" d="M225.4,141l-0.3,0.2L225.4,141C225.5,141,225.6,140.9,225.4,141z"/>
		<path class="st0" d="M225.9,140.6L225.9,140.6z"/>
		<polygon class="st0" points="224,142 224,142 224,142 		"/>
		<path class="st0" d="M225.5,140.9c0.1,0,0.1-0.1,0.2-0.1L225.5,140.9L225.5,140.9z"/>
		<path class="st0" d="M224.8,141.5l0.2-0.1L224.8,141.5z"/>
		<path class="st0" d="M225.8,140.7L225.8,140.7z"/>
		<path class="st0" d="M225.8,140.7l-0.1,0.1L225.8,140.7L225.8,140.7z"/>
		<path class="st0" d="M223.7,142.4c0.1-0.1,0.3-0.3,0.5-0.4c0.2-0.2,0-0.1-0.2,0c0,0,0,0-0.2,0.2c0.1,0,0.5-0.3,0.3-0.2
			c-0.1,0.1-0.2,0.2-0.4,0.2c0.1-0.1-0.3,0.3-0.2,0.3L223.7,142.4C223.7,142.4,223.7,142.5,223.7,142.4z"/>
		<path class="st0" d="M224.4,141.7L224.4,141.7l-0.2,0.1C224,142,224,142,224,142L224.4,141.7L224.4,141.7z"/>
		<path class="st0" d="M224.9,141.4c0,0.1-0.3,0.2-0.1,0.1c0.1-0.1,0.2-0.2,0.3-0.3C224.7,141.6,225.2,141.2,224.9,141.4l0.2-0.2
			L224.9,141.4L224.9,141.4L224.9,141.4C224.8,141.4,224.9,141.4,224.9,141.4L224.9,141.4l-0.4,0.3L224.9,141.4z"/>
		<path class="st0" d="M227,139.9L227,139.9C227,139.9,227,139.9,227,139.9z"/>
		<path class="st0" d="M226.9,140c0-0.1,0.1-0.1,0.1-0.1c0.1-0.1,0,0,0,0s0.2-0.2,0,0l0,0c-0.1,0.1-0.2,0.2-0.4,0.2
			C226.7,140.1,226.8,140,226.9,140z"/>
		<path class="st0" d="M225.9,140.7l-0.3,0.3l0.2-0.1l0,0C225.9,140.7,225.9,140.8,225.9,140.7z"/>
		<polygon class="st0" points="223.9,142.1 224,142 223.8,142.2 		"/>
		<polygon class="st0" points="223.5,142.4 223.5,142.4 223.4,142.4 		"/>
		<path class="st0" d="M212,150c-0.2,0.1-0.4,0.1-0.3,0.2h0.1C211.8,150.1,211.9,150,212,150z"/>
		<path class="st0" d="M204.7,156L204.7,156l0.1-0.1L204.7,156z"/>
		<path class="st0" d="M204.7,156.2l-0.2,0.1L204.7,156.2z"/>
		<path class="st0" d="M218.7,145.6l-0.3,0.2C218.6,145.7,218.7,145.6,218.7,145.6z"/>
		<path class="st0" d="M218,146.1L218,146.1l0.4-0.2C218.3,145.9,218.1,146,218,146.1z"/>
		<path class="st0" d="M181.9,177.8L181.9,177.8z"/>
		<path class="st0" d="M177.4,180.5l0.2-0.1L177.4,180.5z"/>
		<path class="st0" d="M221.6,143.6C221.7,143.6,221.6,143.6,221.6,143.6z"/>
		<path class="st0" d="M222.2,143.4L222.2,143.4C222.2,143.4,222.1,143.4,222.2,143.4z"/>
		<path class="st0" d="M217.1,146.9L217.1,146.9C217.1,146.9,217.2,146.9,217.1,146.9z"/>
		<path class="st0" d="M221.8,143.6l-0.1,0.1L221.8,143.6z"/>
		<path class="st0" d="M221.8,143.6L221.8,143.6L221.8,143.6z"/>
		<path class="st0" d="M221.5,143.8l0.2-0.1l0,0L221.5,143.8z"/>
		<polygon class="st0" points="209.8,152.2 209.8,152.2 209.8,152.2 		"/>
		<path class="st0" d="M209.4,152.5c0.1-0.1,0.2-0.2,0.3-0.3h-0.2L209.4,152.5z"/>
		<path class="st0" d="M205.3,155.6c-0.1,0.1-0.1,0.1-0.2,0.2C205.1,155.7,205.2,155.7,205.3,155.6L205.3,155.6z M220.6,144.4
			L220.6,144.4C220.4,144.5,220.4,144.5,220.6,144.4L220.6,144.4z M220.9,144.2L220.9,144.2l-0.2,0.1L220.9,144.2z"/>
		<path class="st0" d="M204.7,156.1L204.7,156.1C204.7,156.1,204.7,156.2,204.7,156.1z"/>
		<path class="st0" d="M215.9,147.9l-0.1,0.1C215.8,148,215.8,148,215.9,147.9z"/>
		<path class="st0" d="M222.6,143l-0.2,0.1L222.6,143C222.6,143,222.6,143,222.6,143z"/>
		<path class="st0" d="M224.6,141.8L224.6,141.8L224.6,141.8C224.5,141.8,224.4,141.9,224.6,141.8z"/>
		<path class="st0" d="M222.9,142.9c0.1,0,0.2-0.1,0.3-0.2l0,0C223.2,142.7,223,142.8,222.9,142.9z"/>
		<path class="st0" d="M223.2,142.7l0.1-0.1C223.4,142.6,223.3,142.6,223.2,142.7z"/>
		<path class="st0" d="M221.3,143.9C221.4,143.9,221.3,143.8,221.3,143.9C221.5,143.8,220.9,144.2,221.3,143.9z"/>
		<polygon class="st0" points="223.1,142.9 223,142.9 222.9,143 		"/>
		<path class="st0" d="M221.9,143.7l0.2-0.1c0,0,0,0,0-0.1L221.9,143.7z"/>
		<path class="st0" d="M222.2,143.5l0.2-0.1L222.2,143.5z"/>
		<polygon class="st0" points="222.7,143.1 222.7,143.1 222.5,143.3 		"/>
		<path class="st0" d="M219.3,145.4l-0.3,0.2c0,0,0.1,0,0.1-0.1S219.4,145.4,219.3,145.4z"/>
		<path class="st0" d="M220.1,145c0,0-0.1,0-0.1,0v0.1L220.1,145z"/>
		<path class="st0" d="M219.4,145.5C219.4,145.5,219,145.8,219.4,145.5C219.4,145.5,219.6,145.3,219.4,145.5z"/>
		<polygon class="st0" points="215.4,148.1 215.5,148 215.4,147.9 		"/>
		<path class="st0" d="M212.1,150.6c0.3-0.2,0-0.1,0.3-0.3c0.1-0.1-0.2,0.1-0.2,0.1C212.1,150.6,212,150.6,212.1,150.6z"/>
		<path class="st0" d="M212.2,150.4L212.2,150.4L212.2,150.4z"/>
		<polygon class="st0" points="176.6,181 176.4,181.1 176.5,181 		"/>
		<path class="st0" d="M176.2,181.2L176.2,181.2l-0.2,0.1L176.2,181.2z"/>
		<path class="st0" d="M48.6,91c0,0.2-0.1,0.4-0.2,0.5c-0.1,0.1-0.3,0.1-0.5,0.1h-12c-0.2,0-0.3-0.1-0.5-0.1
			c-0.2-0.1-0.3-0.3-0.2-0.5h-0.5v3.8h0.5c0-0.2,0.1-0.4,0.2-0.5c0.1-0.1,0.3-0.1,0.5-0.1h4.5v10.8c0,0.1,0,0.3-0.2,0.4
			c-0.1,0.1-0.2,0.1-0.3,0.1v0.5H44v-0.5c-0.4,0-0.6-0.2-0.6-0.5V94.1h4.5c0.2,0,0.3,0.1,0.5,0.1c0.2,0.1,0.3,0.3,0.2,0.5h0.5V91
			H48.6z M35.3,93.3c-0.1,0-0.2,0-0.2-0.1c-0.1-0.3-0.1-0.6-0.1-0.9c0-0.1,0.1-0.2,0.2-0.2c0.1,0,0.2,0.1,0.2,0.2c0,0,0,0,0,0v0.4
			c0,0.1,0,0.3,0,0.4C35.4,93.2,35.4,93.3,35.3,93.3z M36.5,93.7c0,0-0.1,0-0.1,0h-0.3c0,0-0.1,0-0.1,0c0,0,0-0.1,0-0.1
			c0,0,0-0.1,0-0.1c0,0,0.1,0,0.1,0h0.3C36.4,93.4,36.5,93.5,36.5,93.7C36.5,93.6,36.5,93.7,36.5,93.7L36.5,93.7z M39.8,93
			c-1.2,0.2-2.4,0.1-3.6-0.2c-0.2-0.1,0-0.3,0.2-0.3c1.1,0.5,2.3,0.2,3.5,0.2c1.4,0.1,2.9,0,4.3-0.2c0.2,0,0.3,0.3,0.1,0.3
			C42.8,93,41.3,93,39.8,93z M41.5,104.7c0,0.1-0.1,0.2-0.2,0.2c-0.1,0-0.2-0.1-0.2-0.2v-0.6c0-0.1,0.1-0.2,0.2-0.2
			c0.1,0,0.2,0.1,0.2,0.2c0,0,0,0,0,0V104.7z M41.3,102.4c0-2.8-0.2-5.7-0.2-8.5c0-0.1,0.1-0.2,0.2-0.2c0.1,0,0.2,0.1,0.2,0.2
			c0,2.8,0.2,5.7,0.2,8.5c0,0.1-0.1,0.2-0.2,0.2S41.3,102.5,41.3,102.4L41.3,102.4L41.3,102.4z M42.2,104.7c0,0.2-0.3,0.2-0.3,0
			c0-1.5,0.1-3,0.2-4.4c0-0.2,0.3-0.2,0.3,0C42.2,101.8,42.2,103.2,42.2,104.7L42.2,104.7z M42.2,98.1c-0.3-0.7-0.3-1.5-0.2-2.2
			c0-0.2,0.3-0.1,0.3,0.1c-0.1,0.3-0.1,0.7-0.1,1c0,0.2,0,0.5,0.1,0.7c0.2-0.3,0.2-0.7,0.1-1c0-0.2,0.3-0.3,0.3-0.1
			c0.2,0.5,0,1.1-0.3,1.5C42.4,98.2,42.2,98.2,42.2,98.1L42.2,98.1z M42.8,105.3c-0.1,0-0.2-0.1-0.2-0.2l0,0c0-0.1,0-0.2,0-0.3
			c0,0,0-0.1,0-0.1l0,0c0,0,0-0.1,0-0.1c0-0.1,0-0.2,0.1-0.2c0,0,0,0,0,0c0.1,0,0.2,0,0.2,0.1c0,0,0,0,0,0c0.1,0.2,0.1,0.5,0.1,0.7
			C43,105.2,42.9,105.3,42.8,105.3C42.8,105.2,42.8,105.2,42.8,105.3L42.8,105.3z M46.9,93.3c-1.4,0-2.9,0-4.3,0.2
			c-0.2,0-0.3-0.3-0.1-0.3c1.4-0.2,2.9-0.3,4.4-0.2C47,93,47,93.1,46.9,93.3C47,93.2,47,93.2,46.9,93.3L46.9,93.3z M47.2,92.5
			c-0.3,0-0.6,0-0.9-0.1c-0.1,0-0.1-0.1-0.1-0.2c0-0.1,0.1-0.1,0.2-0.1c0,0,0,0,0,0l0,0l0,0h0.1h0.1h0.4c0.1,0,0.2,0,0.2,0.1
			C47.3,92.3,47.3,92.4,47.2,92.5C47.2,92.4,47.1,92.4,47.2,92.5L47.2,92.5z M48.2,93.7c-0.1,0-0.2,0-0.2-0.1
			c-0.1-0.1-0.2-0.3-0.2-0.4c0-0.2,0-0.3,0.1-0.4c0-0.1,0.1-0.1,0.2-0.1c0,0,0,0,0,0c0.1,0,0.1,0.1,0.1,0.2l0,0l0,0c0,0,0,0.1,0,0.1
			l0,0l0,0c0,0,0,0.1,0,0.1l0,0l0,0v0.1l0,0l0,0l0.1,0.1c0.1,0,0.2,0.1,0.2,0.2C48.4,93.6,48.3,93.7,48.2,93.7L48.2,93.7z"/>
		<path class="st0" d="M70,92.3c0.1-0.1,0.2-0.1,0.3-0.1v-0.5h-4.2v0.5c0.4,0,0.6,0.2,0.6,0.5v4.6H58v-4.6c0-0.1,0-0.3,0.2-0.4
			c0.1-0.1,0.2-0.1,0.3-0.1v-0.5h-4.1v0.5c0.3,0,0.5,0.2,0.5,0.5v12.3c0,0.3-0.2,0.5-0.5,0.5v0.5h4.1v-0.5c-0.1,0-0.2,0-0.3-0.1
			c-0.1-0.1-0.2-0.2-0.2-0.4v-5.1h8.7v5.1c0,0.3-0.2,0.5-0.6,0.5v0.5h4.2v-0.5c-0.1,0-0.2,0-0.3-0.1c-0.1-0.1-0.2-0.2-0.2-0.4V92.6
			C69.8,92.5,69.9,92.3,70,92.3z M56.3,104.4c0,0.1-0.1,0.1-0.2,0.1c-0.1,0-0.1-0.1-0.1-0.2c0.1-0.5,0.1-0.9,0-1.4
			c0-0.1,0.1-0.2,0.2-0.2c0.1,0,0.2,0.1,0.2,0.2l0,0C56.4,103.4,56.4,103.9,56.3,104.4z M56.4,101.7c0,0.1-0.1,0.1-0.2,0.1
			c-0.1,0-0.1-0.1-0.1-0.1c0-0.7,0-1.5,0-2.2c0-1.2-0.1-2.3-0.1-3.5c0.1-1,0-2-0.3-3c-0.1-0.2,0.2-0.3,0.3-0.1
			c0.2,0.5,0.3,1.1,0.3,1.6c0,0.6,0,1.1,0,1.6s0,1,0,1.6C56.5,99,56.4,100.4,56.4,101.7z M57,95.7v-1.3c0-0.1,0.1-0.1,0.2-0.1
			c0.1,0,0.1,0.1,0.1,0.1v1.3c0,0.1-0.1,0.1-0.2,0.1C57.1,95.8,57,95.7,57,95.7z M57.4,104.4c0,0.2-0.3,0.1-0.3-0.1
			c0.3-2.1,0.3-4.1,0-6.2c0-0.2,0.3-0.2,0.3,0C57.7,100.2,57.7,102.3,57.4,104.4z M58.8,99c0,0-0.1,0-0.1,0c-0.1,0-0.3,0-0.3-0.1
			c0,0,0-0.1,0-0.1c0-0.1,0.1-0.2,0.2-0.2c0,0,0.1,0,0.1,0l0,0l0,0h0.1c0,0,0.1,0,0.1,0c0,0,0,0.1,0,0.1
			C58.8,98.8,58.8,98.9,58.8,99C58.8,99,58.8,99,58.8,99z M58.9,97.8c1.6,0,3.2-0.5,4.7-0.2c0.2,0,0.1,0.3-0.1,0.3
			C62,97.5,60.4,98,58.9,98C58.8,98,58.8,97.9,58.9,97.8C58.9,97.8,58.9,97.7,58.9,97.8L58.9,97.8z M66.5,99
			c-0.7,0.1-1.5,0.1-2.2,0.3c-0.2,0-0.3-0.3-0.1-0.3c0.7-0.2,1.4-0.2,2.2-0.3C66.6,98.7,66.7,99,66.5,99z M66.5,98.3
			c-2.1-0.3-4.2,0.5-6.3,0.3c-0.2,0-0.2-0.3,0-0.3c2.1,0.2,4.2-0.6,6.4-0.3C66.8,98.1,66.7,98.4,66.5,98.3L66.5,98.3z M68.8,97.6
			c0.1,2,0,4,0.1,6c0,0.1-0.1,0.2-0.2,0.2c-0.1,0-0.2-0.1-0.2-0.2c-0.1-2,0.1-4-0.1-6C68.5,97.4,68.8,97.4,68.8,97.6L68.8,97.6z
			 M67.5,101.5c0.5-2.8,0-5.6,0-8.4c0-0.1,0.1-0.1,0.2-0.1c0.1,0,0.1,0.1,0.1,0.1c0,2.8,0.5,5.7,0,8.5
			C67.7,101.8,67.4,101.7,67.5,101.5L67.5,101.5z M68.1,104.3L68.1,104.3L68.1,104.3C68.1,104.3,68.1,104.3,68.1,104.3
			c0,0.2-0.1,0.2-0.2,0.2c-0.1,0-0.1,0-0.2-0.1c-0.1-0.4-0.1-0.7-0.1-1.1c0-0.1,0.1-0.2,0.2-0.2c0.1,0,0.2,0.1,0.2,0.2l0,0
			c0,0.3,0,0.5,0,0.8c0,0,0.1,0,0.2,0C68.2,104,68.2,104.1,68.1,104.3C68.1,104.2,68.1,104.3,68.1,104.3L68.1,104.3z M69.1,105.1
			c-0.2,0.1-0.4,0.1-0.6,0.1c-0.1,0-0.2,0-0.2-0.1c0-0.1,0-0.2,0.1-0.2c0,0,0.1,0,0.1,0h0.4H69C69.1,104.9,69.2,104.9,69.1,105.1
			C69.2,105.1,69.1,105.2,69.1,105.1L69.1,105.1z M69.4,94.9L69.3,95c0,0.1-0.1,0.1-0.2,0.2c-0.1,0-0.1,0-0.2,0
			c-0.2-0.2-0.3-0.6-0.3-0.9c0-0.3,0-0.7,0.1-1c0-0.1,0.1-0.2,0.2-0.2c0.1,0,0.2,0.1,0.2,0.2c0,0.3-0.1,0.6-0.1,0.9
			c0,0.2,0,0.4,0.1,0.6c0,0,0-0.1,0.1-0.1C69.3,94.5,69.5,94.7,69.4,94.9L69.4,94.9z"/>
		<path class="st0" d="M90.4,102.7c0,0.2-0.1,0.4-0.3,0.5c-0.2,0.1-0.4,0.2-0.7,0.2h-9.1v-3.8h5.3c0.3,0,0.6,0,0.8,0.2
			c0.2,0.1,0.3,0.4,0.3,0.8h0.5v-4.2h-0.5c0,0.4-0.1,0.7-0.3,0.8c-0.3,0.1-0.6,0.2-0.8,0.2h-5.3V94h8.8c0.3,0,0.6,0,0.8,0.2
			c0.2,0.1,0.2,0.3,0.2,0.4h0.5V91h-0.5c0,0.2-0.1,0.4-0.2,0.5c-0.2,0.1-0.5,0.2-0.8,0.2H76.9v0.5c0.1,0,0.2,0,0.3,0.1
			c0.1,0.1,0.2,0.2,0.2,0.4v12.3c0,0.1,0,0.3-0.2,0.4c-0.1,0.1-0.2,0.1-0.3,0.1v0.5h12.6c0.2,0,0.4,0,0.7,0.1c0.2,0,0.3,0.2,0.3,0.5
			h0.5v-3.7H90.4z M84.1,97.8c0,0,0.1,0,0.1,0h0.3c0.1,0,0.2,0.1,0.2,0.2v0c0,0.1-0.1,0.2-0.1,0.2c0,0,0,0,0,0h-0.3
			c-0.1,0-0.2-0.1-0.2-0.2C84,97.9,84.1,97.9,84.1,97.8z M86.2,98.4c0.2,0,0.2,0.3,0,0.3c-0.9-0.1-1.8-0.1-2.7-0.1
			c-0.9,0-1.8,0.1-2.7,0.3c-0.1,0-0.2,0-0.2-0.1s0-0.2,0.1-0.2c0.9-0.2,1.8-0.3,2.7-0.3C84.4,98.3,85.3,98.3,86.2,98.4z M80.5,97.9
			c0.6-0.1,1.2-0.1,1.8,0c0.1,0,0.1,0.1,0.1,0.2s-0.1,0.1-0.2,0.1l0,0c-0.5-0.1-1.1-0.1-1.6,0c-0.1,0-0.2,0-0.2-0.1
			C80.4,98,80.4,97.9,80.5,97.9C80.5,97.9,80.5,97.9,80.5,97.9z M83.6,93.2h-0.4h-0.1l0,0l0,0c-0.1,0-0.2,0-0.2-0.1c0,0,0,0,0,0
			c0-0.1,0-0.2,0.1-0.2c0,0,0,0,0,0c0.1-0.1,0.2-0.1,0.3-0.1c0.1,0,0.2,0,0.4,0c0.1,0,0.2,0.1,0.2,0.2l0,0c0,0.1,0,0.2,0,0.2
			C83.7,93.2,83.6,93.2,83.6,93.2z M88.8,91.9c0.2,0,0.5,0,0.7,0.1c0.1,0.1,0.1,0.2,0,0.2c0,0.1-0.1,0.1-0.2,0.1c0,0,0,0,0,0l0,0
			l0,0h-0.1h-0.4c-0.1,0-0.2-0.1-0.2-0.2C88.6,92,88.7,91.9,88.8,91.9C88.8,91.8,88.8,91.8,88.8,91.9z M89.3,92.7
			c0.1,0,0.1,0.1,0.1,0.2c0,0.1-0.1,0.1-0.1,0.1c-1.4-0.1-2.8,0-4.2,0.2c-0.2,0-0.3-0.3-0.1-0.3C86.4,92.7,87.8,92.7,89.3,92.7z
			 M78.4,101.8c-0.3-1.5,0.2-3-0.1-4.5c0-0.2,0.3-0.3,0.3-0.1c0.2,1.5-0.2,3,0.1,4.5C78.7,101.9,78.4,102,78.4,101.8z M78.9,104.5
			c-0.1,0-0.2,0-0.2-0.1c-0.1-0.4-0.1-0.9-0.1-1.3c0-0.1,0-0.2,0.1-0.2c0.1,0,0.2,0,0.2,0.1c0,0,0,0.1,0,0.1c0,0.4,0,0.8,0.1,1.2
			C79.1,104.4,79,104.5,78.9,104.5C78.9,104.5,78.9,104.5,78.9,104.5z M78.9,98.9c-0.1-2-0.3-4-0.3-6c0-0.1,0.1-0.1,0.2-0.1
			c0.1,0,0.1,0.1,0.1,0.1c0,2,0.3,4,0.4,6c0,0.1-0.1,0.2-0.2,0.2S78.9,99,78.9,98.9L78.9,98.9z M79.6,101.9c0,0.1-0.1,0.1-0.2,0.1
			c-0.1,0-0.1-0.1-0.1-0.1v-1.5c0-0.1,0.1-0.1,0.2-0.1c0.1,0,0.1,0.1,0.1,0.1V101.9z M79.9,94.7c0,0.1-0.1,0.2-0.2,0.2
			c-0.1,0-0.2-0.1-0.2-0.2c0-0.2,0-0.3,0-0.5c0-0.1,0-0.3-0.1-0.4c0-0.1,0-0.2,0.1-0.2c0,0,0,0,0,0c0.1,0,0.2,0,0.2,0.1
			C79.9,94,80,94.3,79.9,94.7L79.9,94.7z M79.9,92.6c2.3-0.1,4.7-0.7,7-0.3c0.2,0,0.1,0.3-0.1,0.3c-2.3-0.4-4.7,0.3-7,0.4
			C79.8,92.9,79.8,92.6,79.9,92.6L79.9,92.6z M80.5,104.4c-0.2,0-0.3-0.3-0.1-0.3c1-0.2,2-0.3,3.1-0.3c1-0.1,2.1,0,3.1,0.3
			c0.2,0.1,0.1,0.4-0.1,0.3c-1-0.3-2-0.3-3-0.2C82.5,104.1,81.5,104.2,80.5,104.4z M89,104.9c-0.8,0.3-1.6,0.4-2.4,0.3
			c-0.8,0-1.6-0.1-2.5-0.1c-0.1,0-0.2-0.1-0.2-0.2c0-0.1,0.1-0.2,0.2-0.2c0.8,0,1.6,0.1,2.4,0.1c0.8,0.1,1.6,0,2.3-0.3
			C89.1,104.6,89.1,104.9,89,104.9L89,104.9z M89.5,103.9h-0.2h-0.2c-0.1,0-0.3,0-0.4,0c-0.1,0-0.2-0.1-0.2-0.2
			c0-0.1,0.1-0.2,0.2-0.2h0h0.2h0.2c0.1,0,0.3,0,0.4-0.1c0.1,0,0.2,0.1,0.2,0.2C89.7,103.8,89.7,103.8,89.5,103.9
			C89.6,103.9,89.6,103.9,89.5,103.9z"/>
		<path class="st0" d="M169.9,176.9c0,0.2-0.1,0.4-0.2,0.6c-0.1,0.1-0.3,0.2-0.5,0.2h-11.1c-0.2,0-0.3-0.1-0.5-0.2
			c-0.2-0.1-0.2-0.4-0.2-0.6h-0.6v3.6h0.6c0-0.2,0.1-0.3,0.2-0.4c0.1-0.1,0.3-0.1,0.5-0.1h4.1v10.4c0,0.1,0,0.3-0.2,0.4
			c-0.1,0.1-0.2,0.1-0.3,0.1v0.6h4v-0.6c-0.4,0-0.6-0.1-0.6-0.5V180h4.1c0.2,0,0.3,0,0.5,0.1c0.1,0.1,0.2,0.2,0.2,0.4h0.6v-3.6
			L169.9,176.9z M159.9,179.1c-0.7,0.2-1.4,0.2-2.1,0c-0.1,0-0.1-0.1-0.1-0.1c0-0.1,0-0.2,0.1-0.3c0.1-0.1,0.2-0.1,0.3-0.1
			s0.3,0.2,0.2,0.3l-0.2,0.1c0.6,0.2,1.2,0.1,1.8-0.1c0.1,0,0.2,0.1,0.2,0.1C160,179,160,179,159.9,179.1L159.9,179.1z M160.7,178.3
			c0,0.1-0.1,0.1-0.2,0.1h-0.1h-0.5h-0.1l0,0l0,0c-0.1,0.1-0.2,0.1-0.2,0c0-0.1,0-0.2,0.1-0.2c0,0,0,0,0,0c0.3-0.1,0.7-0.2,1-0.1
			C160.7,178.2,160.7,178.3,160.7,178.3L160.7,178.3z M162.8,189c0-2.9,0.2-5.9,0.2-8.8c0-0.1,0.1-0.1,0.2-0.1
			c0.1,0,0.1,0.1,0.1,0.1c0,2.9-0.2,5.9-0.2,8.8c0,0.1-0.1,0.2-0.2,0.2C162.9,189.2,162.8,189.1,162.8,189z M163.9,190.5l-0.8,0.2
			c-0.1,0-0.2,0-0.2-0.1c0-0.1,0-0.2,0.1-0.2c0,0,0,0,0,0l0.8-0.2c0.1,0,0.2,0,0.2,0.1C164,190.4,164,190.5,163.9,190.5L163.9,190.5
			z M163.9,189.2c0,0.2-0.3,0.2-0.3,0c0.1-1,0.1-2.1,0.2-3.1c0-0.2,0.3-0.2,0.3,0C164,187.1,164,188.2,163.9,189.2L163.9,189.2z
			 M164.5,184.2c-0.1,0.1-0.1,0.2-0.2,0.3c0,0.1-0.1,0.1-0.2,0c0,0,0,0,0,0c-0.2-0.2-0.3-0.4-0.3-0.6v-0.4c0-0.1,0-0.1,0-0.1v-0.1
			l0,0l0,0c0-0.1,0-0.2,0.1-0.2c0.1,0,0.2,0,0.2,0.1c0,0,0,0,0,0c0,0.2,0,0.4,0.1,0.6c0,0.1,0,0.2,0.1,0.3l0,0l0,0l0.1-0.1
			c0-0.1,0.1-0.1,0.2-0.1c0,0,0,0,0,0C164.5,184,164.5,184.1,164.5,184.2L164.5,184.2z M167.8,179.2c-0.5-0.1-1-0.2-1.4-0.3
			c-0.5-0.1-1-0.1-1.6-0.1c-1.1,0.1-2.3,0.2-3.4,0.2c-0.1,0-0.1-0.1-0.1-0.2c0-0.1,0.1-0.1,0.1-0.1c1.2,0,2.3-0.1,3.5-0.2
			c0.5,0,1.1,0,1.6,0.1c0.5,0.1,1,0.2,1.4,0.3C168.1,178.9,168,179.2,167.8,179.2L167.8,179.2z M169.5,178.7c-0.3,0-0.5-0.1-0.8-0.1
			c-0.1,0-0.1-0.1-0.1-0.2c0-0.1,0.1-0.1,0.2-0.1c0,0,0,0,0,0l0.4,0.1h0.1h0.2c0.1,0,0.2,0.1,0.2,0.2
			C169.7,178.6,169.6,178.7,169.5,178.7C169.5,178.7,169.5,178.7,169.5,178.7L169.5,178.7z"/>
		<path class="st0" d="M190.4,190.6c-0.2-0.1-0.4-0.3-0.6-0.5l-3.1-4.5c0.4-0.1,0.9-0.3,1.3-0.4c0.4-0.2,0.8-0.5,1.1-0.8
			c0.3-0.3,0.6-0.7,0.8-1.1c0.2-0.5,0.3-1,0.3-1.5c0.1-1.3-0.5-2.5-1.6-3.1c-1.3-0.7-2.8-1-4.4-0.9h-8.6v0.6c0.4,0,0.6,0.2,0.6,0.5
			v11.7c0,0.3-0.2,0.5-0.6,0.5v0.6h4.2v-0.6c-0.1,0-0.3,0-0.4-0.1c-0.1-0.1-0.2-0.2-0.2-0.4v-4.5h4.4l2.5,3.7c0.2,0.3,0.4,0.6,0.5,1
			c0,0.2-0.1,0.3-0.4,0.3v0.6h4.8v-0.6C190.8,190.8,190.6,190.7,190.4,190.6z M189,183.1c0.1,0,0.1,0.1,0.1,0.2
			c-0.1,0.3-0.4,0.6-0.7,0.8c-0.3,0.2-0.5,0.4-0.8,0.6c-0.1,0.1-0.4-0.1-0.2-0.2c0.3-0.2,0.5-0.4,0.8-0.6c0.3-0.2,0.5-0.4,0.6-0.7
			C188.8,183.1,188.9,183.1,189,183.1C189,183.1,189,183.1,189,183.1z M188.3,179.5c0.5,0.6,0.7,1.4,0.5,2.2
			c-0.2,0.8-0.6,1.5-1.1,2.1c-0.1,0.1-0.4-0.1-0.2-0.2c0.9-1,1.6-2.6,0.6-3.8C187.9,179.6,188.1,179.4,188.3,179.5L188.3,179.5z
			 M185.7,178.7c1,0,1.8,0.7,2,1.6c0,0.2-0.3,0.3-0.3,0.1c-0.1-0.5-0.4-0.9-0.8-1.1c-0.9-0.4-2-0.5-3-0.3c-0.9,0.1-1.8,0.3-2.7,0.4
			c-0.2,0-0.2-0.3,0-0.3l1.4-0.2C183.4,178.6,184.6,178.6,185.7,178.7L185.7,178.7z M177.5,189.1c-0.1-0.7-0.2-1.5-0.2-2.2
			c-0.2-2.6-0.2-5.3-0.1-7.9c0-0.2,0.3-0.2,0.3,0v2.2c0,2.6,0.1,5.3,0.4,7.9C177.8,189.3,177.5,189.3,177.5,189.1L177.5,189.1z
			 M178.1,179.4c0-0.1,0.1-0.2,0.2-0.1c0.1,0,0.2,0.1,0.2,0.1c-0.1,0.3-0.1,0.7-0.1,1c0,0.2,0,0.3,0,0.5v0.1l0,0l0,0l0,0l0,0
			c0.1,0,0.2,0,0.2,0.1c0,0.1,0,0.2-0.1,0.2c0,0-0.1,0-0.1,0c-0.4,0-0.4-0.5-0.4-0.8C177.9,180.1,178,179.7,178.1,179.4L178.1,179.4
			z M178.2,186c0.1-1,0-1.9-0.1-2.9c0-0.2,0.3-0.2,0.3,0c0.1,1,0.1,1.9,0.1,2.9C178.5,186.2,178.2,186.2,178.2,186L178.2,186z
			 M178.4,190c0-0.7-0.1-1.3-0.1-2c0-0.1,0.1-0.1,0.2-0.1c0.1,0,0.1,0.1,0.1,0.1c0,0.6,0.1,1.3,0.1,2c0,0.1-0.1,0.1-0.2,0.1
			C178.5,190.1,178.4,190,178.4,190L178.4,190z M179,178.7c-0.2,0-0.2-0.3,0-0.3c1.4,0,2.9-0.1,4.3-0.4c0.2,0,0.3,0.3,0.1,0.3
			C182,178.6,180.5,178.7,179,178.7L179,178.7z M179.4,180h4.9c0.8-0.1,1.6,0.1,2.3,0.5c0.5,0.2,0.7,0.7,0.7,1.2
			c0,1.3-1,1.9-3.1,1.9h-4.9L179.4,180z M180.9,185.1c-0.4,0.1-0.8,0.1-1.2,0.1c-0.1,0-0.2,0-0.2-0.1s0-0.2,0.1-0.2l0,0
			c0.4-0.1,0.8-0.1,1.2-0.1c0.1,0,0.2,0,0.2,0.1C181.1,185,181.1,185.1,180.9,185.1L180.9,185.1z M183.3,184.8
			c-0.8,0.1-1.7,0-2.5-0.1c-0.2,0-0.1-0.3,0.1-0.3c0.8,0.1,1.6,0.2,2.4,0.1c0.8,0,1.6-0.2,2.4-0.4c0.1,0,0.2,0.1,0.2,0.1
			c0,0.1,0,0.1-0.1,0.2C184.9,184.6,184.1,184.7,183.3,184.8L183.3,184.8z M187.3,190.3c-0.8-1.5-1.6-2.9-2.6-4.2
			c-0.1-0.2,0.1-0.3,0.3-0.2c0.9,1.4,1.8,2.8,2.6,4.2C187.7,190.3,187.4,190.5,187.3,190.3L187.3,190.3z M186.1,186
			c-0.1-0.2,0.2-0.3,0.3-0.1c0.3,1,0.8,1.9,1.5,2.7c0.1,0.1-0.1,0.4-0.2,0.2C187,188,186.4,187,186.1,186z M188.6,190.2L188.6,190.2
			L188.6,190.2L188.6,190.2c0,0.1,0,0.2,0,0.3c0,0.1-0.1,0.1-0.2,0.1c-0.1,0-0.2-0.1-0.2-0.1c-0.1-0.1-0.1-0.1-0.2-0.2
			c-0.1-0.1-0.1-0.3-0.2-0.4c0-0.1,0-0.2,0.1-0.2c0,0,0.1,0,0.1,0c0,0,0.1,0.1,0.1,0.1v0.1l0,0l0,0l0,0c0,0.1,0.1,0.1,0.1,0.2l0,0
			l0,0l0,0c0,0,0-0.1,0.1-0.1c0-0.1,0.1-0.1,0.2-0.1c0,0,0,0,0,0c0.1,0,0.1,0.1,0.1,0.2L188.6,190.2z M189.4,190.7
			c-0.1,0.1-0.2,0.1-0.2,0c-0.3-0.2-0.5-0.5-0.7-0.8c0-0.1,0-0.2,0.1-0.2c0.1,0,0.2,0,0.2,0c0,0,0,0,0,0l0.1,0.2l0,0l0,0l0,0
			l0.1,0.1c0.1,0.1,0.2,0.3,0.4,0.4c0.1,0,0.2,0.1,0.2,0.2C189.5,190.6,189.5,190.7,189.4,190.7L189.4,190.7z"/>
		<path class="st0" d="M208.5,177.7v0.6c0.5,0,0.8,0.2,0.8,0.5v7.2c0,0.9-0.4,1.8-1.1,2.4c-2.1,1.2-4.6,1.2-6.7,0
			c-0.7-0.6-1.1-1.5-1.1-2.4v-7.2c0-0.3,0.2-0.5,0.7-0.5v-0.6h-4.5v0.6c0.2,0,0.5,0,0.7,0.1c0.1,0.1,0.2,0.2,0.2,0.4v7.9
			c0,0.6,0.2,1.3,0.4,1.9c0.3,0.6,0.8,1.2,1.3,1.6c0.7,0.5,1.5,0.9,2.3,1.1c2.1,0.5,4.4,0.5,6.5,0c0.8-0.2,1.6-0.6,2.3-1.1
			c0.6-0.4,1-1,1.3-1.6c0.3-0.6,0.4-1.2,0.4-1.9v-7.9c0-0.3,0.2-0.5,0.7-0.5v-0.6H208.5z M199.2,179.8c0-0.1,0.1-0.1,0.2-0.1
			c0.1,0,0.1,0.1,0.1,0.1c-0.1,0.4,0,0.9,0.2,1.3c0,0.1,0,0.2-0.1,0.2c-0.1,0-0.1,0-0.2,0C199.2,180.8,199.2,180.3,199.2,179.8
			L199.2,179.8z M198.3,187.3c0,0.1-0.1,0.1-0.2,0.1c-0.1,0-0.1-0.1-0.1-0.1c0-2.7,0.1-5.3,0.2-8c0-0.2,0.3-0.2,0.3,0
			C198.4,181.9,198.4,184.6,198.3,187.3L198.3,187.3z M199.8,189c-0.4-0.2-0.6-0.5-0.8-0.9c-0.3-0.9-0.4-1.9-0.3-2.8
			c0-0.8,0.2-1.7,0.2-2.5c0-0.1,0.1-0.1,0.2-0.1c0.1,0,0.1,0.1,0.1,0.1c0,0.4,0,0.8-0.1,1.2c-0.1,0.9-0.1,1.9-0.1,2.8
			c0.1,0.7,0.2,1.6,0.9,2C200.1,188.8,200,189.1,199.8,189L199.8,189z M202.9,190.9c-0.9,0.1-1.7-0.6-2.6-0.9
			c-0.2-0.1-0.1-0.4,0.1-0.3c0.4,0.1,0.8,0.4,1.2,0.5c0.4,0.2,0.8,0.3,1.3,0.3C203.1,190.5,203.1,190.9,202.9,190.9L202.9,190.9z
			 M206.7,190.1c-1.8,0.3-3.5,0-5.2-0.6c-0.2-0.1-0.1-0.4,0.1-0.3c1.6,0.6,3.3,0.9,5,0.6C206.8,189.8,206.9,190.1,206.7,190.1
			L206.7,190.1z M208.4,190c-0.2,0.1-0.5,0.2-0.7,0.3c-0.1,0.1-0.2,0.1-0.4,0.2h0.2c0.2-0.1,0.3,0.2,0.1,0.3c-0.2,0.1-0.4,0.1-0.6,0
			c-0.1,0-0.1-0.1-0.1-0.2c0,0,0,0,0,0c0.2-0.2,0.4-0.4,0.6-0.5c0.2-0.1,0.5-0.2,0.7-0.3c0.1,0,0.2,0,0.2,0.1
			C208.4,190,208.4,190,208.4,190L208.4,190z M209.1,188.7c-0.2,0.2-0.5,0.4-0.7,0.6c-0.1,0-0.2,0-0.2-0.1c0,0,0-0.1,0-0.1
			c0,0,0-0.1,0.1-0.1l0.2-0.1h0.1l0,0c0,0,0.1,0,0.1-0.1c0.1-0.1,0.2-0.2,0.3-0.3c0.1-0.1,0.2-0.1,0.2,0
			C209.1,188.6,209.1,188.7,209.1,188.7L209.1,188.7z M210.4,179.3c0,0.1,0,0.1,0,0.2c0,0,0,0.1,0,0.1l0,0c0.2,1.1,0.3,2.2,0.4,3.4
			c0.1,1.3-0.1,2.5-0.5,3.7c0,0.1-0.1,0.1-0.2,0.1c-0.1,0-0.1-0.1-0.1-0.2c0.4-1.2,0.5-2.4,0.5-3.6c0-1.2-0.2-2.4-0.4-3.6v-0.1l0,0
			l0,0c0-0.1,0-0.2,0.1-0.2S210.4,179.2,210.4,179.3L210.4,179.3L210.4,179.3z M209.8,182.2c0-0.1,0.1-0.2,0.2-0.2s0.2,0.1,0.2,0.2
			v1.3c0,0.1-0.1,0.2-0.2,0.2s-0.2-0.1-0.2-0.2V182.2z M211.5,187.5c-0.3,0.8-0.8,1.4-1.5,1.8c-0.2,0.1-0.3-0.2-0.2-0.3
			c0.7-0.4,1.2-1,1.4-1.7c0.1-0.7,0.2-1.5,0.2-2.2c0-0.2,0.3-0.2,0.3,0C211.8,185.9,211.7,186.7,211.5,187.5L211.5,187.5z
			 M211.4,181.3c0-0.7-0.1-1.3-0.1-2c0-0.1,0.1-0.1,0.2-0.1c0.1,0,0.1,0.1,0.1,0.1c0,0.7,0.1,1.3,0.1,2c0,0.1-0.1,0.2-0.2,0.2
			C211.5,181.5,211.5,181.4,211.4,181.3L211.4,181.3z"/>
		<path class="st0" d="M222.7,182.3c-0.5-0.1-0.8-0.5-0.8-1c0-0.3,0.1-0.5,0.2-0.7c0.2-0.2,0.4-0.4,0.7-0.5c0.3-0.1,0.7-0.2,1-0.3
			c0.4-0.1,0.8-0.1,1.2-0.1c1,0,2,0.1,2.9,0.4c0.7,0.2,1.4,0.5,1.9,0.9c0.1,0.1,0.2,0.2,0.3,0.4l0.1,0.4l0.6,0.2l1.6-2.9l-0.4-0.4
			l-0.3,0.2c-0.1,0.1-0.2,0.1-0.4,0.1c-0.2,0-0.5-0.1-0.7-0.2c-0.4-0.2-0.8-0.4-1.2-0.5c-0.6-0.2-1.2-0.4-1.8-0.5
			c-0.8-0.2-1.7-0.2-2.5-0.2c-1.6-0.1-3.3,0.3-4.7,1.2c-1.1,0.7-1.7,1.9-1.7,3.2c0,0.8,0.2,1.5,0.8,2.1c0.5,0.5,1.2,0.9,1.9,1.1
			c0.8,0.3,1.7,0.5,2.5,0.6l2.5,0.3c0.7,0.1,1.3,0.3,1.9,0.5c0.5,0.1,0.8,0.5,0.8,1c0,0.4-0.1,0.8-0.4,1c-0.3,0.3-0.7,0.4-1.1,0.6
			c-0.4,0.1-0.8,0.2-1.3,0.3c-0.4,0-0.7,0.1-1.1,0.1c-0.4,0-0.9-0.1-1.3-0.2c-0.6-0.1-1.1-0.2-1.7-0.4c-0.5-0.2-1-0.4-1.4-0.7
			c-0.3-0.2-0.6-0.5-0.6-0.9c0-0.1,0-0.2,0-0.3c0-0.1,0-0.2,0-0.3l-0.6-0.2l-1.4,3.5l0.4,0.3c0.1-0.1,0.2-0.2,0.4-0.2
			c0.2,0.1,0.5,0.1,0.7,0.2c0.4,0.1,0.9,0.3,1.4,0.5s1.2,0.3,1.9,0.5c0.7,0.1,1.4,0.2,2.1,0.2c0.8,0,1.5-0.1,2.3-0.2
			c0.8-0.1,1.5-0.3,2.2-0.6c0.7-0.3,1.9-0.3,2.3-0.8c0.5-0.7,0-2,0-2.8c0-0.8-0.2-1.6-0.8-2.2c-0.5-0.5-1.2-0.9-1.9-1.2
			c-0.8-0.3-1.6-0.5-2.5-0.6c-0.9-0.1-1.7-0.2-2.5-0.4 M230.6,179.2c0,0,0.1,0,0.1,0h0.2h0.1h0.1c0,0,0.1,0.1,0.1,0.1
			c0,0,0,0.1,0,0.1c0,0-0.1,0.1-0.1,0.1c0,0-0.1,0-0.1,0H231h-0.1c0,0-0.1,0-0.1,0c0,0,0-0.1,0-0.1
			C230.7,179.3,230.7,179.2,230.6,179.2L230.6,179.2z M230.4,180.7c0-0.1,0-0.1,0-0.2c0-0.1,0-0.2,0-0.4c0-0.1,0.1-0.2,0.2-0.2l0,0
			c0.1,0,0.2,0.1,0.2,0.2c0,0.2,0,0.4-0.1,0.6c0,0.1-0.1,0.1-0.2,0.1c0,0,0,0,0,0C230.4,180.8,230.4,180.8,230.4,180.7L230.4,180.7z
			 M229.8,179.9c0.2,0.1,0.1,0.4-0.1,0.3c-1-0.6-2.2-0.9-3.4-1.1c-0.1,0-0.2-0.1-0.2-0.2s0.1-0.2,0.2-0.2
			C227.6,178.9,228.8,179.3,229.8,179.9L229.8,179.9z M221.5,179.7c0.3-0.3,0.7-0.6,1.1-0.8c0.8-0.4,1.7-0.7,2.6-0.8
			c0.8-0.1,1.7,0,2.5,0.4c0.1,0,0.1,0.1,0.1,0.2c0,0.1-0.1,0.1-0.2,0.1l0,0c-1-0.4-2-0.5-3.1-0.3c-1,0.2-2,0.7-2.8,1.4
			C221.7,180,221.4,179.8,221.5,179.7L221.5,179.7z M220.2,182.8c-0.9-1.3-0.1-3.1,1.1-3.8c0.1,0,0.2,0,0.2,0.1c0,0.1,0,0.1,0,0.2
			c-1.1,0.7-1.8,2.3-1,3.4C220.6,182.8,220.3,183,220.2,182.8L220.2,182.8z M225.1,184.9c-1.1-0.3-2.3-0.5-3.4-0.6
			c-0.2,0-0.1-0.3,0.1-0.3c1.2,0.1,2.3,0.3,3.4,0.6C225.4,184.7,225.3,185,225.1,184.9L225.1,184.9z M225.9,184.3
			c-0.4-0.2-0.8-0.3-1.2-0.4c-0.9-0.1-1.7-0.3-2.6-0.6c-0.8-0.2-1.4-0.8-1.6-1.6c0-0.2,0.3-0.3,0.3-0.1c0.1,0.4,0.3,0.8,0.6,1
			c0.7,0.4,1.5,0.7,2.3,0.7c0.8,0.1,1.5,0.3,2.2,0.6c0.2,0.1,0.1,0.4-0.1,0.3L225.9,184.3z M229.1,188.9c0.1,0,0.1,0.1,0.1,0.2
			c0,0.1-0.1,0.1-0.1,0.1c-0.1,0-0.1-0.1-0.1-0.2C229.1,189,229.1,188.9,229.1,188.9L229.1,188.9z M222.6,190.5
			c-0.6-0.2-1.2-0.3-1.7-0.4c-0.1,0-0.1-0.1-0.1-0.2c0-0.1,0.1-0.1,0.2-0.1c0,0,0,0,0,0c0.6,0.1,1.2,0.3,1.7,0.4
			c0.1,0,0.1,0.1,0.1,0.2C222.7,190.5,222.7,190.5,222.6,190.5L222.6,190.5z M222.4,189.8c-0.8,0-1.6-0.4-2.2-1.1
			c-0.1-0.2,0.2-0.3,0.3-0.2c0.3,0.4,0.8,0.7,1.3,0.8c0.5,0.1,1.1,0.2,1.6,0.2c0.6,0,1.2,0,1.8,0c0.7,0,1.3,0,2,0.2
			c0.1,0,0.1,0.1,0.1,0.2c0,0.1-0.1,0.1-0.1,0.1c-0.6-0.1-1.2-0.2-1.9-0.2C224.3,189.9,223.4,189.9,222.4,189.8L222.4,189.8z
			 M229.2,189.8c-1.2,0.9-2.8,1.2-4.2,0.8c-0.2,0-0.1-0.3,0.1-0.3c1.3,0.4,2.8,0.1,3.9-0.7C229.2,189.4,229.4,189.7,229.2,189.8
			L229.2,189.8z M228.4,185.2c0,0.1-0.1,0.1-0.2,0.1c0,0,0,0,0,0c-0.3,0-0.7-0.1-1-0.2c-0.1,0-0.1-0.1-0.1-0.2
			c0-0.1,0.1-0.1,0.2-0.1c0,0,0,0,0,0c0.3,0.1,0.7,0.2,1,0.2C228.4,185,228.4,185.1,228.4,185.2
			C228.4,185.2,228.4,185.2,228.4,185.2L228.4,185.2z M230.2,188.2c0.5-0.9,0.4-2-0.3-2.8c-0.7-0.7-1.7-1.1-2.7-1.3
			c-0.1,0-0.1-0.1-0.1-0.2c0-0.1,0.1-0.1,0.2-0.1c0.5,0.1,1,0.3,1.5,0.5c0.7,0.3,1.4,0.8,1.8,1.5c0.3,0.8,0.3,1.7-0.1,2.5
			C230.4,188.4,230.1,188.4,230.2,188.2L230.2,188.2z M230.6,189.4c-0.2,0.1-0.3-0.2-0.2-0.3c0.8-0.7,1.1-1.7,0.9-2.7
			c0-0.2,0.3-0.2,0.3,0C231.8,187.6,231.4,188.7,230.6,189.4L230.6,189.4z"/>
		<path class="st0" d="M250.4,176.9c0,0.2-0.1,0.4-0.2,0.6c-0.1,0.1-0.3,0.2-0.5,0.2h-11.1c-0.2,0-0.3-0.1-0.5-0.2
			c-0.2-0.1-0.2-0.4-0.2-0.6h-0.6v3.6h0.6c0-0.2,0.1-0.3,0.2-0.4c0.1-0.1,0.3-0.1,0.5-0.1h4.1v10.4c0,0.1,0,0.3-0.2,0.4
			c-0.1,0.1-0.2,0.1-0.3,0.1v0.6h4v-0.6c-0.4,0-0.6-0.1-0.6-0.5V180h4.1c0.2,0,0.3,0,0.5,0.1c0.1,0.1,0.2,0.2,0.2,0.4h0.6v-3.6
			L250.4,176.9z M238.3,178.5c-0.1,0-0.1-0.1-0.1-0.2c0,0,0,0,0,0c0-0.1,0.1-0.1,0.2-0.1c0.2,0.1,0.5,0.1,0.7,0.1h0.8
			c0.1,0,0.1,0.1,0.1,0.2c0,0.1-0.1,0.1-0.1,0.1C239.4,178.7,238.8,178.6,238.3,178.5L238.3,178.5z M243.5,187
			c-0.1-0.7-0.1-1.4-0.1-2c0-0.1,0.1-0.1,0.2-0.1c0.1,0,0.1,0.1,0.1,0.1c0,0.7,0.1,1.4,0.1,2C243.8,187.2,243.5,187.2,243.5,187
			L243.5,187z M243.6,180.1c0-0.1,0.1-0.2,0.2-0.2s0.2,0.1,0.2,0.2c-0.1,2.7,0.4,5.3,0.4,8c0,0.1-0.1,0.1-0.2,0.1
			c-0.1,0-0.1-0.1-0.1-0.1C244,185.4,243.6,182.7,243.6,180.1L243.6,180.1z M244.6,190.1c-0.1,0.1-0.2,0.1-0.3,0.2
			c-0.1,0-0.3,0-0.4-0.1c-0.1-0.1-0.2-0.3-0.1-0.5c0-0.1,0.1-0.1,0.1-0.1c0.1,0,0.2,0.1,0.2,0.1c0,0,0,0,0,0v0.1v0.1l0,0l0,0l0,0
			h0.2l0.1-0.1c0.1-0.1,0.2-0.1,0.2,0C244.6,189.8,244.7,190,244.6,190.1C244.6,190,244.6,190.1,244.6,190.1L244.6,190.1z
			 M244.5,181.7c-0.1-0.7-0.1-1.4,0-2.1c0-0.1,0.1-0.1,0.2-0.1c0.1,0,0.1,0.1,0.1,0.2c0,0,0,0,0,0c0,0.7,0,1.3,0,2
			c0,0.1-0.1,0.2-0.1,0.2C244.6,181.9,244.5,181.8,244.5,181.7L244.5,181.7L244.5,181.7z M245.1,188.7c0,0.1,0,0.2-0.1,0.2
			c-0.1,0-0.2,0-0.2-0.1c0,0,0-0.1,0-0.1v-0.4c0-0.1,0-0.2,0.1-0.2c0.1,0,0.2,0,0.2,0.1c0,0,0,0.1,0,0.1V188.7z M245.7,178.8
			c-2.2,0.2-4.5,0.2-6.8,0.2c-0.2,0-0.2-0.3,0-0.3c2.2,0.2,4.5-0.1,6.8-0.2C245.9,178.6,245.9,178.9,245.7,178.8L245.7,178.8z
			 M246.6,178.3c0-0.1,0.1-0.1,0.2-0.1c0.1,0.1,0.3,0.1,0.4,0.1h0.4c0.1,0,0.2,0,0.2,0.1c0,0,0,0,0,0c0,0.1,0,0.2-0.1,0.2
			c0,0,0,0,0,0c-0.3,0-0.7,0-1-0.1C246.7,178.6,246.6,178.5,246.6,178.3C246.6,178.4,246.6,178.4,246.6,178.3L246.6,178.3z
			 M249.5,179c-0.4,0-0.8,0-1.2,0.1c-0.4,0.1-0.8,0.1-1.2,0c-0.1,0-0.1-0.1-0.1-0.2c0-0.1,0.1-0.1,0.1-0.1c0.4,0.1,0.8,0.1,1.2-0.1
			c0.4-0.1,0.8-0.1,1.2-0.1C249.8,178.8,249.7,179.1,249.5,179L249.5,179z M250.3,179.1c-0.1,0-0.2-0.1-0.2-0.1c0,0,0,0,0,0
			c0-0.1,0-0.3,0-0.4c0-0.1,0-0.1,0-0.2l0,0v-0.1c0,0,0-0.1,0-0.1c0-0.1,0-0.2,0.1-0.2c0,0,0,0,0,0c0.1,0,0.2,0,0.2,0.1c0,0,0,0,0,0
			c0.1,0.3,0.1,0.6,0.1,0.8c0.1,0.1,0,0.2,0,0.2S250.3,179.2,250.3,179.1L250.3,179.1z"/>
		<path class="st0" d="M116.4,87.5c-0.3,0.7-0.5,1.5-0.6,2.3C116.1,89,116.3,88.3,116.4,87.5z"/>
		<path class="st0" d="M148.9,126.5c0.7,0,1.3-0.4,1.5-1.1c0.5-1.2,1-2.3,1.7-3.3V122c0.2-0.3,0.3-0.7,0.3-1.1
			c0-0.9-0.4-1.7-1.1-2.2c-0.6-0.6-1.5-0.9-2.4-0.9c-1.1,0-2,1.4-3.3,4.8l-0.1,0.6v0.1c0,0.6,0.2,1.2,0.6,1.6
			C146.7,125.8,147.8,126.4,148.9,126.5z M150.8,120c-0.2-0.2,0.1-0.6,0.3-0.3c0.7,0.7,0.2,1.7-0.2,2.3c-0.5,0.7-1.1,1.5-1.6,2.1
			c-0.2,0.2-0.5-0.1-0.3-0.3c0.5-0.6,1-1.2,1.5-1.9C150.7,121.5,151.3,120.6,150.8,120z M150.2,120.3c-0.3,0.5-0.7,1-1,1.6
			c0.1,0.1,0.1,0.2,0,0.3c-0.1,0.1-0.2,0.2-0.3,0.3s-0.5,0-0.4-0.2c0.3-0.8,0.8-1.5,1.2-2.2C150,119.8,150.4,120.1,150.2,120.3
			L150.2,120.3z M148.4,119C148.4,119,148.4,118.9,148.4,119c0.1-0.1,0.1-0.1,0.1-0.1c0,0,0.1,0,0.1,0h0.1c0,0,0.1-0.1,0.2-0.1
			c0.1,0,0.1,0,0.2,0.1c0,0,0,0.1,0.1,0.1c0,0,0,0,0,0.1c0,0,0,0.1,0,0.1c0,0,0,0.1-0.1,0.1H149h-0.1h-0.1h-0.2
			c-0.1,0-0.1,0-0.2-0.1C148.4,119.2,148.4,119.1,148.4,119C148.4,119,148.4,119,148.4,119z M147.9,120.7c0.1-0.3,0.3-0.6,0.5-0.9
			c0.2-0.2,0.5,0.1,0.3,0.3c-0.2,0.3-0.4,0.6-0.5,0.9c-0.4,0.8-0.7,1.7-0.9,2.6c-0.1,0.3-0.1,0.7,0,1c0.1,0.2,0.2,0.3,0.4,0.3
			s0.3,0.4,0,0.5c-0.4,0-0.7-0.2-0.9-0.6c-0.1-0.4-0.1-0.8,0-1.2c0.1-0.5,0.2-1,0.4-1.5C147.5,121.6,147.7,121.1,147.9,120.7
			L147.9,120.7z M146.4,123c0.1-0.4,0.2-0.8,0.4-1.2c0.1-0.1,0.2-0.2,0.3-0.1c0.1,0,0.2,0.1,0.1,0.2c-0.1,0.4-0.3,0.8-0.4,1.2
			c0,0.1-0.2,0.2-0.3,0.2c0,0,0,0,0,0C146.4,123.3,146.3,123.1,146.4,123C146.3,123,146.3,123,146.4,123z"/>
		<path class="st0" d="M175.5,139.7c1-2.8,2.3-5.5,3.9-8v-0.1c0.2-0.3,0.3-0.7,0.3-1.1c0-0.9-0.4-1.7-1.1-2.2
			c-0.6-0.6-1.5-0.9-2.4-0.9c-0.5,0-1.2,0-6.1,7.6c-0.6-1.5-1.6-2.7-2.8-3.7c-0.8-0.6-1.8-1-2.8-1c-0.9,0-1.7,0.3-2.4,0.8l0,0
			c-2.2,1.8-3.9,4.1-5,6.7c-2.8,4.3-6.3,8.1-10.2,11.3c-1.1,0.9-2.4,1.6-3.8,2.1v-0.1c0-0.4-0.1-0.7-0.1-1.1c0.1-3,0.7-5.9,1.6-8.7
			c0.8-2.9,1.8-5.7,3.1-8.3v-0.1l0.1-0.6v-0.1c0-0.6-0.2-1.1-0.6-1.6c-0.6-0.9-1.6-1.5-2.8-1.6c-1.1,0-2.4,1.1-4.6,9.4
			c-1.1,3.3-1.7,6.7-1.8,10.1c0,1.6,0.4,3.2,1.3,4.6c0.9,1.9,2.9,3.1,5,3c2.5,0,5.3-1.5,8.2-4.4l1-0.9c-0.1,1.9,0.6,3.7,2,5
			c0.9,0.7,1.9,1.1,3.1,1.1c2.3,0,5.1-2.2,8.5-6.8c-1,3.9-1.5,7.9-1.6,11.9c0,2.9,0.8,4.7,2.4,5.5c0.4,0.3,0.9,0.5,1.4,0.5
			c0.8,0.1,1.5-0.5,1.6-1.3c0-0.1,0-0.2,0-0.2c0-0.3,0-0.6-0.1-0.9c0-0.1-0.1-0.3-0.2-0.4V165c0-0.2,0-0.3-0.1-0.5
			c0-2.8,0.3-5.6,0.8-8.4C172,150.6,173.5,145.1,175.5,139.7z M177.5,133.2c-0.5,1.2-1,2.3-1.6,3.5c-0.5,1-1,2-1.5,3.1
			s-0.8,2.1-1.2,3.1c-0.9,2.1-1.9,4.1-3.2,6c-0.2,0.2-0.6,0-0.4-0.2c0.7-1.1,1.4-2.2,1.9-3.3c0.5-1,1-2.1,1.4-3.1s0.8-2,1.2-3
			c0.9-2.1,2.1-4,2.9-6.1C177.1,132.8,177.6,132.9,177.5,133.2L177.5,133.2z M176.8,129.3c0-0.1,0.2-0.2,0.3-0.2
			c0.4,0.1,0.7,0.5,0.8,0.9c0.1,0.4,0.1,0.8-0.1,1.2c0,0.1-0.2,0.2-0.3,0.2c-0.1,0-0.2-0.2-0.2-0.3l0.1-0.3v-0.1c0,0,0-0.1,0-0.1
			c0-0.1,0-0.2,0-0.2c0,0,0-0.1,0-0.1v-0.1c0-0.1,0-0.1-0.1-0.2l0,0c0,0,0,0,0-0.1l-0.1-0.1l0,0l0,0l0,0l0,0l-0.1-0.1h-0.1l0,0
			c-0.1,0.1-0.3,0.1-0.4-0.1S176.6,129.4,176.8,129.3L176.8,129.3z M176.2,130L176.2,130h0.2h0.1h0.1v0.1v0.1v0.1l0,0l0,0
			c0,0,0,0.1,0,0.1v0.1c0,0.1,0,0.1-0.1,0.2c0,0-0.1,0.1-0.2,0.1c0,0-0.1,0-0.1,0c0,0-0.1,0-0.1,0c0,0,0,0-0.1-0.1c0,0,0-0.1,0-0.1
			v-0.1l0,0c0,0-0.1-0.1-0.1-0.2C176,130.1,176.1,130,176.2,130L176.2,130z M172.2,134.7c0.7-1.2,1.4-2.4,2.2-3.5
			c0.2-0.3,0.6,0,0.4,0.2c-0.8,1.1-1.5,2.3-2.2,3.5C172.4,135.2,172,135,172.2,134.7L172.2,134.7z M171.9,137.4
			c0.9-1.9,2.2-3.5,3-5.4c0.1-0.3,0.6-0.1,0.5,0.1c-0.8,1.9-2.1,3.6-3,5.5C172.1,137.9,171.7,137.7,171.9,137.4L171.9,137.4z
			 M171,142.3c1.6-3.6,3.4-7.1,5.4-10.5c0.1-0.1,0.2-0.1,0.3,0c0.1,0.1,0.1,0.2,0.1,0.3c-2,3.4-3.8,6.9-5.4,10.5
			C171.3,142.9,170.9,142.6,171,142.3L171,142.3z M170.2,137.8c-0.4,0.7-0.9,1.4-1.4,2c-0.1,0.1-0.2,0.1-0.3,0
			c-0.1-0.1-0.1-0.2,0-0.3c0,0,0,0,0,0c0.5-0.6,1-1.2,1.4-1.9C169.9,137.3,170.3,137.6,170.2,137.8L170.2,137.8z M162.7,148.4
			c2-2.3,4-4.7,5.8-7.2c0.2-0.2,0.6,0,0.4,0.2c-1.8,2.5-3.8,5-5.8,7.3C162.8,149,162.5,148.7,162.7,148.4L162.7,148.4z M158.3,151.1
			v-0.5c0.6-3.4,1.8-6.7,3.3-9.8c0.2-0.3,0.4-0.5,0.5-0.8V140c0.1-0.3,0.2-0.5,0.2-0.8c0.7-1.3,1.6-2.5,2.6-3.5
			c0.1-0.1,0.3-0.2,0.4-0.3c0.2,0.6,0.4,1.2,0.6,1.9c0.2,0.8,0.6,1.5,1.1,2c-1.3,2-2.6,4-4,6l0,0C162,147.5,160.3,149.5,158.3,151.1
			L158.3,151.1z M168,136.5L168,136.5L168,136.5C168,136.5,168,136.5,168,136.5L168,136.5L168,136.5L168,136.5l0.1,0.1l0,0l0,0l0,0
			c0,0,0,0,0-0.1l0,0l0,0c0,0,0-0.1,0-0.1c0-0.1,0-0.1,0-0.2l0,0l0,0c0,0,0-0.1,0-0.1c0-0.1-0.1-0.2-0.1-0.3l0,0l0,0l0,0l-0.1-0.1
			c-0.1-0.1,0-0.3,0.1-0.3c0,0,0,0,0,0c0.1-0.1,0.3,0,0.3,0.1c0.2,0.3,0.3,0.6,0.3,0.9c0.1,0.3,0,0.5-0.2,0.8
			c-0.1,0.1-0.3,0.2-0.4,0.1c-0.2,0-0.3-0.1-0.4-0.2c-0.2-0.3-0.3-0.6-0.3-0.9c0-0.3-0.1-0.6-0.1-0.8c0-0.1,0.1-0.2,0.2-0.2
			c0,0,0,0,0,0c0.1,0,0.2,0.1,0.2,0.2c0,0.1,0,0.2,0,0.3v0.2c0,0,0,0.1,0,0l0,0c0,0,0,0.1,0,0.1c0,0.1,0.1,0.3,0.1,0.4
			C167.8,136.4,168,136.4,168,136.5z M167.8,133.3c0.2,0.2-0.1,0.6-0.3,0.3c-0.8-1-3.3-2.2-4.1-0.6c-0.1,0.3-0.6,0-0.4-0.2
			C164,130.9,166.8,132,167.8,133.3L167.8,133.3z M162.3,132.2c0.4-0.4,0.8-0.7,1.3-0.9c0.1-0.1,0.2,0.1,0.3,0.2
			c0,0.1,0,0.3-0.2,0.3l0,0h-0.1l-0.1,0.1c-0.1,0.1-0.2,0.1-0.3,0.2l0,0l0,0l-0.1,0.1l-0.1,0.1c-0.1,0.1-0.2,0.2-0.3,0.2
			c-0.1,0.1-0.2,0.1-0.3,0s-0.1-0.2,0-0.3L162.3,132.2z M162.2,135.1c0.4-0.7,1.1-1.3,1.8-1.7c0.6-0.4,1.4-0.4,2,0
			c0.5,0.4,0.8,0.9,0.9,1.6c0.2,0.7,0.2,1.3,0.4,2c0,0.1-0.1,0.3-0.2,0.3c-0.1,0-0.2,0-0.2-0.1c-0.1-0.7-0.2-1.3-0.4-2
			c-0.1-0.5-0.4-1-0.8-1.4c-0.6-0.2-1.3,0-1.9,0.4c-1.3,0.9-1.8,2.5-2.7,3.7c-0.2,0.3-0.6,0-0.4-0.2
			C161.2,136.8,161.6,135.9,162.2,135.1L162.2,135.1z M147.7,149.1c0.3-0.1,0.6-0.3,0.8-0.6c0.2-0.2,0.5-0.5,0.8-0.7
			c0.1-0.1,0.2-0.1,0.3,0s0.1,0.2,0,0.3c-0.5,0.5-1,1-1.6,1.4c-0.1,0.1-0.3,0-0.3-0.1c0,0,0,0,0,0
			C147.6,149.3,147.6,149.2,147.7,149.1C147.8,149.1,147.8,149.1,147.7,149.1L147.7,149.1z M145.4,134.4L145.4,134.4l0.1-0.1
			c0-0.1,0.1-0.1,0.1-0.2c0.1-0.1,0.1-0.2,0.2-0.4c0.1-0.1,0.1-0.2,0.1-0.3c0-0.1,0.1-0.3,0.1-0.4c0-0.1,0.2-0.2,0.3-0.2
			c0.1,0,0.2,0.2,0.2,0.3c-0.1,0.6-0.4,1.1-0.8,1.6c-0.1,0.1-0.2,0.1-0.3,0S145.3,134.5,145.4,134.4L145.4,134.4z M145.2,132
			c-0.6,1.1-1.1,2.4-1.4,3.6c0,0.1-0.2,0.2-0.3,0.2c-0.1,0-0.2-0.2-0.2-0.3c0.3-1.3,0.8-2.6,1.4-3.8
			C144.9,131.5,145.3,131.8,145.2,132z M143.2,132.1c0.1-0.5,0.3-0.9,0.6-1.3c0.1-0.1,0.2-0.1,0.3-0.1c0.1,0.1,0.1,0.2,0.1,0.3
			c0,0,0,0,0,0c-0.1,0.2-0.3,0.4-0.4,0.6l-0.1,0.2v0.1l0,0c0,0.1-0.1,0.2-0.1,0.3c0,0.1-0.2,0.2-0.3,0.2c0,0,0,0,0,0
			C143.3,132.3,143.2,132.2,143.2,132.1L143.2,132.1z M142.4,134.4c0.1-0.3,0.5,0,0.4,0.2c-1.1,2.3-1.8,4.8-2.1,7.3
			c0,0.3-0.5,0.3-0.5,0C140.5,139.3,141.2,136.8,142.4,134.4L142.4,134.4z M140.2,153c-1.3-2.7-1.6-5.7-0.9-8.6
			c0.1-0.3,0.5-0.2,0.5,0.1c-0.6,2.8-0.3,5.7,0.9,8.2C140.8,153,140.4,153.2,140.2,153z M140.8,148.8c0-1,0.1-1.9,0.2-2.8
			c0.5-3.5,1.6-6.9,3.2-10c0.1-0.3,0.6,0,0.4,0.2c-0.4,0.8-0.8,1.7-1.2,2.6c-1.3,3.2-2,6.5-2.1,9.9c0,0.1-0.1,0.2-0.3,0.2
			C140.9,149,140.8,148.9,140.8,148.8L140.8,148.8z M141.1,151c0-0.3,0.4-0.4,0.5-0.1c0.1,0.9,0.7,1.6,1.4,2
			c0.8,0.3,1.8,0.2,2.6-0.3c1.6-0.8,2.6-2.3,4-3.3c0.2-0.2,0.5,0.2,0.2,0.4c-0.7,0.5-1.3,1.1-1.9,1.7c-1,1.1-2.4,1.9-3.9,2.1
			C142.5,153.6,141.3,152.5,141.1,151L141.1,151z M152,151c-1.7,0.6-2.7,2.1-4.1,3.1c-0.7,0.6-1.6,1-2.5,1.1c-0.9,0-1.8-0.1-2.7-0.4
			c-0.3-0.1-0.2-0.5,0.1-0.4c0.8,0.3,1.7,0.4,2.6,0.4c0.9-0.2,1.8-0.6,2.4-1.2c0.6-0.5,1.1-1.1,1.8-1.7c0.6-0.6,1.4-1,2.1-1.3
			C152.2,150.4,152.3,150.9,152,151z M151.7,146.6c-0.2,0.2-0.6-0.1-0.3-0.3c1.3-1,2.5-2.2,3.4-3.6c0.2-0.3,0.6,0,0.4,0.2
			C154.2,144.3,153,145.6,151.7,146.6L151.7,146.6z M154,146.3c-0.4,0.5-0.8,1-1.3,1.4c-0.1,0.1-0.2,0.1-0.3,0
			c-0.1-0.1-0.1-0.2,0-0.3c0,0,0,0,0,0c0.5-0.4,0.9-0.9,1.3-1.4c0.1-0.1,0.2-0.1,0.3,0c0,0,0,0,0,0C154.1,146,154.1,146.2,154,146.3
			L154,146.3z M155.1,152.5c-0.1,0.1-0.3,0-0.3-0.1c0,0,0,0,0,0c-0.4-0.7-0.5-1.5-0.5-2.3c0-0.1,0.1-0.2,0.2-0.2c0,0,0,0,0,0
			c0.1,0,0.2,0.1,0.2,0.2c-0.1,0.7,0.1,1.4,0.4,2.1C155.3,152.2,155.2,152.4,155.1,152.5L155.1,152.5z M155.2,150
			c-0.1-1.2-0.1-2.4,0.1-3.6c0.4-2.3,1.1-4.5,2.1-6.5c0.9-2,2.1-4,3.4-5.8c0.2-0.2,0.6,0,0.4,0.2c-0.7,1-1.3,2-1.9,3
			c-1.2,2-2.1,4.1-2.8,6.3c-0.7,2.1-0.9,4.3-0.7,6.4C155.7,150.2,155.3,150.2,155.2,150L155.2,150z M157.4,155.2
			c-0.6-0.6-1-1.5-1.1-2.4c-0.1-1.9,0-3.7,0.5-5.6c0.6-2.5,1.5-5,2.8-7.3c0.1-0.3,0.6,0,0.4,0.2c-0.7,1.3-1.3,2.6-1.8,4
			c-0.7,1.9-1.2,3.9-1.4,5.9c-0.1,0.9-0.1,1.8,0,2.8c0,0.8,0.4,1.5,0.9,2C158,155.1,157.6,155.4,157.4,155.2L157.4,155.2z
			 M158.3,153.1c-0.3,0-0.3-0.5,0-0.5c1.1-0.1,2.1-0.5,3-1.2c0.8-0.6,1.6-1.2,2.4-1.9c0.8-0.7,1.5-1.4,2.1-2.2
			c1.5-1.9,2.9-3.9,4.2-6c0.1-0.1,0.2-0.1,0.3,0c0.1,0.1,0.1,0.2,0.1,0.3c-0.7,1.2-1.5,2.4-2.3,3.6c-0.7,1-1.5,2-2.3,3
			c-0.7,0.8-1.4,1.5-2.2,2.2C162.1,151.5,160.3,153,158.3,153.1L158.3,153.1z M160.1,155c-0.3,0.1-0.4-0.4-0.1-0.5
			c0.9-0.4,1.8-0.9,2.6-1.5c2.7-2.3,4.4-5.8,7.4-7.8c0.3-0.2,0.5,0.2,0.2,0.4c-0.8,0.6-1.6,1.2-2.3,2
			C165.5,150.2,163.6,153.7,160.1,155L160.1,155z M167.2,156c-0.4,2.2-0.4,4.5-0.2,6.7c0,0.3-0.4,0.4-0.5,0.1
			c-0.2-2.3-0.1-4.6,0.2-6.8c0.2-2.2,0.3-4.5,1.1-6.6c0.1-0.3,0.6-0.2,0.5,0.1C167.4,151.6,167.4,153.9,167.2,156L167.2,156z
			 M169.9,153.5c-1.4,4-1.1,8.3-1.3,12.4c0,0.3-0.5,0.3-0.5,0c0.2-4.2-0.1-8.5,1.3-12.5C169.6,153.1,170,153.2,169.9,153.5
			L169.9,153.5z M170.6,149.5c-0.7,1.2-1.3,2.5-1.8,3.8c-0.1,0.3-0.6,0.2-0.5-0.1c0.5-1.4,1.1-2.7,1.9-3.9
			C170.4,149,170.8,149.3,170.6,149.5L170.6,149.5z"/>
		<path class="st0" d="M234.9,128.3c-0.6-0.6-1.5-0.9-2.4-0.9c-0.5,0-1.2,0-6.1,7.6c-0.6-1.5-1.6-2.7-2.8-3.7c-0.8-0.6-1.8-1-2.8-1
			c-0.9,0-1.7,0.3-2.4,0.8l0,0c-1.9,1.4-3.6,3.7-5.1,7c-0.1,0.1-0.2,0.3-0.2,0.4c-1.8,3-3.9,5.8-6.4,8.3c-0.6,0.6-1.4,1.2-2.2,1.6
			l-1.1,0.4l-0.1-0.2v-0.2l-0.1-0.1c-0.4-1.1-0.7-2.3-0.8-3.5c-0.3-1.7-0.7-3.4-1.3-5c-0.7-1.7-1.9-3.1-3.5-3.9l0,0
			c-0.9-0.4-1.8-0.6-2.8-0.6c-2.5,0-5.4,1.7-8.8,5.2c3-7.4,3-8,3-8.3c-0.1-0.7-0.4-1.3-0.8-1.8c-0.4-0.5-0.9-0.9-1.5-1.2
			c-0.3-0.1-0.7-0.2-1.1-0.2c-0.7,0-1.3,0.4-1.5,1.1c-3.9,9.5-6.7,17.5-8.6,23.8v0.1v0.4c0,1,0.5,2,1.4,2.6c0.5,0.5,1.2,0.8,2,0.8
			c0.5,0,1.1-0.2,3.2-3.2c5.7-8.3,10.4-13.1,14-14.3h0.6v0.1c0.5,1.2,0.8,2.5,1,3.7c0.2,1.5,0.6,2.9,1.1,4.3
			c0.7,2.4,2.4,4.3,4.7,5.1h0.1c0.6,0.1,1.2,0.2,1.8,0.2c1.6,0,3.2-0.6,4.4-1.7l0.3-0.2c0.1,1.6,0.8,3.1,1.9,4.2
			c0.8,0.7,1.9,1.1,3.1,1.1c2.3,0,5.1-2.2,8.5-6.8c-1,3.9-1.5,7.9-1.6,11.9c0,2.9,0.8,4.7,2.4,5.5c0.4,0.3,0.9,0.5,1.4,0.5
			c0.8,0.1,1.5-0.5,1.6-1.3c0-0.1,0-0.2,0-0.2c0-0.3,0-0.6-0.1-0.9c0-0.1-0.1-0.3-0.2-0.4V165c0-0.2,0-0.3-0.1-0.5
			c0-2.8,0.3-5.6,0.8-8.4c1-5.6,2.5-11.1,4.5-16.4c1-2.8,2.3-5.5,3.9-8v-0.1c0.2-0.3,0.3-0.7,0.3-1.1
			C236.1,129.7,235.7,128.9,234.9,128.3z M232.9,129.2c0.1-0.1,0.2-0.1,0.3-0.1c0,0,0,0,0,0c0.4,0.2,0.8,0.6,0.9,1
			c0,0.1,0,0.3-0.2,0.3c0,0,0,0,0,0c-0.1,0-0.1,0-0.2,0c0,0-0.1-0.1-0.1-0.1l0,0l0,0v-0.1l-0.1-0.1c0,0,0-0.1-0.1-0.1l0,0
			c0,0-0.1-0.1-0.1-0.1l-0.1-0.1l-0.1-0.1l0,0l-0.2-0.1c-0.1,0-0.2-0.1-0.2-0.2C232.8,129.3,232.8,129.2,232.9,129.2z M233.6,131.2
			c0.2-0.2,0.5,0.1,0.3,0.3c-0.9,1.2-1.6,2.4-2.3,3.7c-0.5,0.7-0.9,1.5-1.3,2.2c0.2-0.1,0.5,0.1,0.3,0.3l-0.6,0.8
			c-0.1,0.1-0.2,0.1-0.3,0.1c-0.1,0-0.1-0.1-0.1-0.2c0-1.3,0.9-2.3,1.5-3.4C231.9,133.7,232.7,132.4,233.6,131.2L233.6,131.2z
			 M231.7,131c0.2-0.2,0.5,0.1,0.3,0.3c-0.7,0.9-1.4,1.9-1.9,3c-1.9,3.7-2.6,7.9-3.6,12c-0.1,0.3-0.5,0.2-0.4-0.1
			c0.3-1.2,0.6-2.4,0.9-3.6C227.9,138.6,229.1,134.5,231.7,131L231.7,131z M228,134.2c0.5-0.7,1-1.5,1.5-2.2
			c0.1-0.1,0.2-0.2,0.3-0.1c0.1,0.1,0.2,0.2,0.1,0.3c0,0,0,0,0,0c-0.5,0.7-1,1.4-1.5,2.2C228.2,134.7,227.8,134.4,228,134.2z
			 M225.9,140.2c0.2-0.9,0.7-1.8,1-2.7c0-0.1,0.2-0.2,0.3-0.1c0.1,0,0.2,0.2,0.1,0.3c-0.3,0.9-0.8,1.7-1,2.7c0,0.1-0.2,0.2-0.3,0.2
			C225.9,140.4,225.8,140.3,225.9,140.2L225.9,140.2L225.9,140.2z M224,134.4c0.1,0.2,0.2,0.5,0.2,0.7c0.1,0.5,0.1,1.1,0.3,1.6
			c0,0.2,0.1,0.4,0.2,0.6c0,0,0.1,0.1,0.1,0.1h0.1h0.2c0.1,0,0.2,0.1,0.2,0.2c0,0.1-0.1,0.2-0.2,0.2c-0.3,0-0.5-0.1-0.7-0.3
			c-0.3-0.5-0.5-1-0.5-1.5c0-0.3-0.1-0.6-0.1-0.9l-0.1-0.4c0-0.1-0.1-0.2-0.1-0.2C223.4,134.3,223.8,134.1,224,134.4z M224.4,145
			c0.1-0.7,0.3-1.4,0.3-2.2c0-0.1,0.1-0.2,0.2-0.2c0,0,0,0,0,0c0.1,0,0.3,0.1,0.2,0.2c-0.1,0.8-0.2,1.5-0.3,2.3
			C224.8,145.4,224.3,145.3,224.4,145L224.4,145z M224.2,141.8c-0.1,0.1-0.2,0.2-0.3,0.1c-0.1-0.1-0.1-0.2-0.1-0.3
			c0.1-0.2,0.2-0.5,0.3-0.8c0.1-0.3,0.2-0.5,0.4-0.8c0.1-0.1,0.2-0.1,0.3-0.1c0.1,0.1,0.1,0.2,0.1,0.3c-0.1,0.2-0.2,0.5-0.3,0.7
			C224.4,141.3,224.3,141.6,224.2,141.8L224.2,141.8z M223.7,139.2c-1.3,2-2.6,4-4,6l0,0c-1.3,2.3-3,4.3-5,5.9l0.1-0.5
			c0.6-3.4,1.7-6.6,3.3-9.7l0.4-0.6c0.2-0.2,0.3-0.5,0.3-0.8c0.7-1.5,1.7-2.8,2.8-3.9c0.1-0.1,0.3-0.2,0.5-0.3
			c0.2,0.6,0.4,1.2,0.6,1.9C222.7,138,223.1,138.7,223.7,139.2L223.7,139.2z M213.3,151.8c0,0.5,0.1,1.2,0.7,1.4
			c0.3,0.1,0.2,0.6-0.1,0.5c-0.7-0.3-1.1-1-1-1.8c0-1,0.1-1.9,0.3-2.8c0.2-1.1,0.6-2.3,0.9-3.4s0.7-2.1,1-3.1c0.2-0.6,0.4-1.3,0.5-2
			c0-0.3,0.5-0.3,0.5,0c-0.1,0.8-0.3,1.6-0.6,2.3c-0.6,2.1-1.4,4.1-1.9,6.2C213.5,149.9,213.3,150.8,213.3,151.8L213.3,151.8z
			 M218,136.9c0.2-0.2,0.6,0,0.4,0.2c-0.5,0.7-1,1.5-1.9,1.5c-0.1,0-0.2-0.1-0.2-0.2c0,0,0-0.1,0-0.1c1.3-1.9,1.9-4.4,4.1-5.5
			c0.3-0.1,0.5,0.3,0.2,0.4c-1.9,0.9-2.6,3-3.6,4.8C217.5,137.6,217.8,137.3,218,136.9L218,136.9z M214.4,138.2
			c0.4-0.4,0.8-0.9,1.1-1.4c1-1.5,2.1-2.9,3.3-4.2c0.9-0.8,2.3-1.9,3.4-0.7c0.2,0.2-0.1,0.6-0.3,0.3c-0.4-0.4-1-0.5-1.5-0.2
			c-0.6,0.4-1.2,0.9-1.7,1.4c-0.6,0.7-1.1,1.3-1.6,2.1c-0.5,0.6-0.9,1.3-1.4,1.9c-0.2,0.4-0.5,0.8-0.9,1.1
			C214.5,138.8,214.1,138.4,214.4,138.2L214.4,138.2z M211.9,142.2c0.1-0.2,0.2-0.3,0.4-0.5l0.1-0.2c0.1-0.1,0.2-0.2,0.3-0.1
			c0.1,0.1,0.2,0.2,0.1,0.3c-0.1,0.2-0.2,0.3-0.4,0.5l-0.1,0.2c-0.1,0.1-0.2,0.1-0.3,0.1c0,0-0.1-0.1-0.1-0.1
			C211.9,142.3,211.9,142.2,211.9,142.2L211.9,142.2z M210.8,143.4l0.1-0.1c0-0.1,0.1-0.1,0.1-0.2c0.1-0.1,0.2-0.2,0.3-0.1
			c0,0,0,0,0.1,0.1c0,0,0,0,0.1,0.1c0,0,0,0.1,0,0.1c0,0,0,0.1,0,0.1c-0.1,0.1-0.2,0.3-0.3,0.4c0,0-0.1,0.1-0.2,0.1
			c-0.1,0-0.1,0-0.2-0.1c0,0,0-0.1-0.1-0.1c0,0,0-0.1,0-0.1C210.8,143.5,210.8,143.4,210.8,143.4L210.8,143.4z M206.9,149.3
			c0.7-0.2,1.4-0.7,1.9-1.2c1-1.1,1.9-2.3,2.7-3.6c0.9-1.3,2.2-2.4,2.8-4c-0.1,0-0.2-0.1-0.2-0.3c0-0.1,0-0.1,0.1-0.2
			c0.2-0.1,0.3-0.2,0.5-0.1c0.1,0,0.2,0.2,0.2,0.3c-0.3,1-0.8,1.9-1.5,2.7c-0.5,0.7-1.1,1.3-1.6,2s-0.9,1.3-1.3,1.9
			c-0.9,1.1-1.9,2.5-3.4,2.9c-0.1,0-0.2-0.1-0.2-0.2C206.8,149.4,206.9,149.3,206.9,149.3L206.9,149.3z M204.5,149.7L204.5,149.7
			L204.5,149.7c0-0.2,0.1-0.3,0.2-0.3c0.1,0,0.2,0.1,0.2,0.2c0,0,0,0,0,0c0,0,0,0.1,0,0.1h0.1l0,0l0,0l0.1-0.1l0,0l0,0l0.1-0.1l0,0
			l0.1-0.1c0.1-0.1,0.2-0.1,0.3-0.1c0.1,0.1,0.1,0.2,0.1,0.3c0,0,0,0,0,0c-0.1,0.2-0.3,0.4-0.5,0.5c-0.2,0.1-0.5,0.1-0.7,0.1
			c-0.1,0-0.2-0.1-0.2-0.2C204.2,150,204.3,149.8,204.5,149.7L204.5,149.7z M187.7,140c0.9-0.9,2-1.6,3.2-2.2
			c0.3-0.1,0.5,0.3,0.2,0.4c-1.1,0.5-2.2,1.3-3.1,2.1C187.8,140.6,187.4,140.3,187.7,140L187.7,140z M191.6,138.8
			c0.3-0.2,0.5,0.2,0.2,0.4c-3.1,2-5.8,4.5-8,7.4c-0.2,0.2-0.6,0-0.4-0.2C185.6,143.3,188.4,140.8,191.6,138.8L191.6,138.8z
			 M185.2,134.8c0.1-0.3,0.3-0.6,0.4-0.9c0.1-0.1,0.2-0.2,0.3-0.1c0.1,0.1,0.1,0.2,0.1,0.3c0,0,0,0,0,0c-0.1,0.3-0.3,0.6-0.4,0.9
			c-0.1,0.1-0.2,0.2-0.3,0.1c0,0,0,0,0,0C185.1,135,185.1,134.9,185.2,134.8C185.1,134.8,185.1,134.8,185.2,134.8L185.2,134.8z
			 M185,137.5c0.1-0.3,0.1-0.6,0.2-0.9c0-0.1,0.1-0.2,0.2-0.2c0,0,0,0,0.1,0c0.3-0.7,0.5-1.4,0.7-2.1c0.2-0.6,0.3-1.2,0.3-1.8
			c0.1-0.4-0.1-0.9-0.5-1.2c-0.3-0.2,0-0.6,0.2-0.4c1,0.7,0.7,2.3,0.5,3.3c-0.3,1.2-0.7,2.4-1.3,3.5
			C185.3,137.9,184.9,137.7,185,137.5L185,137.5z M179,148.2c0.3-1.1,0.6-2.2,1-3.2c0.7-1.9,1.6-3.8,2.2-5.8s1.3-4.2,2-6.2
			c0.1-0.3,0.6-0.2,0.5,0.1c-0.4,1.2-0.8,2.4-1.2,3.6c-0.3,1-0.6,2.1-1,3.1s-0.7,1.9-1.1,2.9c-0.8,1.9-1.5,3.8-2,5.7
			C179.4,148.6,179,148.5,179,148.2z M178.4,150.4c-0.2,0.5-0.4,0.9-0.5,1.4c-0.1,0.3-0.1,0.5-0.1,0.8c0.1,0,0.3,0.1,0.3,0.2
			c0,0.1,0,0.1-0.1,0.2c-0.1,0.1-0.2,0.2-0.2,0.4c-0.1,0.1-0.2,0.1-0.3,0.1c0,0-0.1-0.1-0.1-0.1c-0.1-0.5,0-1.1,0.1-1.6
			c0.1-0.5,0.3-1.1,0.6-1.6C178.1,149.9,178.5,150.1,178.4,150.4L178.4,150.4z M178.8,154.1c-0.2,0.2-0.5-0.1-0.3-0.3
			c0.5-0.7,1-1.5,1.2-2.4c0.2-0.7,0.4-1.5,0.7-2.2s0.5-1.6,0.9-2.4c0.7-1.7,1.3-3.5,1.8-5.3c0.1-0.3,0.5-0.2,0.5,0.1
			c-0.3,1.1-0.6,2.1-1,3.1c-0.6,1.7-1.3,3.4-1.8,5.2C180.3,151.3,179.7,152.8,178.8,154.1L178.8,154.1z M191.7,140.6
			c-1,0.5-1.9,1.2-2.7,2c-1.4,1.6-2.7,3.2-3.9,5c-1.3,1.9-2.7,3.7-4.1,5.5c-0.2,0.2-0.6,0-0.4-0.2l2.4-3.2c0.7-0.9,1.4-1.9,2.1-2.9
			s1.2-1.8,1.9-2.7c1.2-1.6,2.7-3,4.4-4C191.8,140,192.1,140.4,191.7,140.6L191.7,140.6z M196.3,138.5c0,0.1-0.2,0.2-0.3,0.2
			c-0.5-0.1-0.9,0-1.4,0.1c-0.5,0.1-0.9,0.3-1.4,0.4c-0.1,0-0.3-0.1-0.3-0.2c0-0.1,0-0.2,0.1-0.3c1-0.4,2-0.6,3-0.5
			C196.2,138.2,196.3,138.3,196.3,138.5C196.3,138.5,196.3,138.5,196.3,138.5L196.3,138.5z M197.7,138.7c-0.4-0.6-0.9-1.1-1.6-1.4
			c-0.9-0.2-1.9-0.2-2.8,0.2c-0.3,0.1-0.4-0.4-0.1-0.5c1-0.4,2.2-0.4,3.2-0.1c1.6,0.6,2.3,2.5,2.7,4c0.5,1.8,0.6,3.7,1.1,5.5
			c0,0.1-0.1,0.3-0.2,0.3c-0.1,0-0.2,0-0.3-0.1c-0.2-1-0.4-1.9-0.5-2.9C198.9,142,198.5,140.3,197.7,138.7L197.7,138.7z M200.8,150
			c-0.1,0.1-0.2,0.1-0.3,0c-0.3-0.5-0.6-1-0.9-1.5c-0.1-0.1,0-0.3,0.1-0.3c0,0,0,0,0,0c0.1-0.1,0.2,0,0.3,0.1c0,0,0,0,0,0l0.4,0.7
			c0.1,0.1,0.1,0.2,0.2,0.3c0,0.1,0.1,0.1,0.1,0.2l0.1,0.1l0,0l0,0C200.9,149.7,200.9,149.9,200.8,150
			C200.8,150,200.8,150,200.8,150z M201.5,149.2c-0.8-1.5-1.3-3.2-1.4-4.9c-0.1-0.9-0.3-1.7-0.4-2.6c-0.1-0.7-0.3-1.4-0.5-2
			c-0.1-0.3,0.3-0.5,0.4-0.2c0.3,0.7,0.5,1.5,0.6,2.2c0.3,1.7,0.5,3.4,0.9,5c0.3,1.3,0.9,3,2.3,3.5c0.3,0.1,0.2,0.6-0.1,0.5
			C202.4,150.4,201.8,149.9,201.5,149.2L201.5,149.2z M202.9,151.6c-0.3-0.1,0-0.6,0.2-0.4c0.8,0.5,1.8,0.6,2.7,0.4
			c1.7-0.6,3.1-1.7,4.1-3.1c1.1-1.3,2-2.6,3.1-3.9c0.2-0.2,0.5,0.1,0.3,0.3c-0.6,0.7-1.1,1.5-1.7,2.2
			C209.8,149.7,206.5,153.7,202.9,151.6L202.9,151.6z M211.9,152.2c0,0.1,0,0.2-0.1,0.3c-0.1,0.1-0.2,0.3-0.4,0.3
			c-0.1,0-0.2,0-0.2-0.1c-0.3-0.5-0.4-1.1-0.3-1.7c0.1-0.6,0.3-1.2,0.6-1.8c0.1-0.3,0.6,0,0.4,0.2c-0.2,0.5-0.4,1-0.5,1.6
			c-0.1,0.4-0.1,0.8,0,1.2l0,0c0-0.1,0.2-0.2,0.3-0.2c0,0,0,0,0,0C211.9,152.1,211.9,152.1,211.9,152.2L211.9,152.2z M222.8,147.3
			c-0.6,0.6-1.1,1.3-1.6,2c-1.3,1.9-2.9,3.6-4.7,5.1c-0.7,0.6-1.6,1-2.5,1.1c-0.9,0-1.7-0.5-2.1-1.2c-0.2-0.3,0.2-0.5,0.4-0.2
			c0.4,0.8,1.3,1.2,2.1,0.9c0.9-0.3,1.7-0.8,2.4-1.4c0.8-0.8,1.6-1.6,2.4-2.4c0.7-0.8,1.3-1.7,2-2.5c0.4-0.6,0.8-1.1,1.3-1.6
			C222.7,146.8,223.1,147.1,222.8,147.3L222.8,147.3z M223,146c-0.2,0.2-0.5-0.1-0.3-0.3c0.5-0.5,0.8-1,1-1.7
			c-1.3,0.7-2.1,2.2-3,3.3c-1.1,1.6-2.8,2.7-4,4.2c-0.2,0.2-0.5-0.1-0.3-0.3c1.2-1.6,2.9-2.7,4-4.3c0.9-1.3,1.9-2.9,3.4-3.5
			c0.1-0.1,0.3,0,0.3,0.1c0,0,0,0.1,0,0.1C224,144.5,223.6,145.3,223,146z M224.1,164.7c-0.8-0.3-1-1.2-1.1-2c-0.1-2,0-4,0.4-5.9
			c0.2-1.3,0.4-2.6,0.6-4c0.4-1.8,0.8-3.6,1.1-5.4c0.1-0.3,0.5-0.2,0.5,0.1c-0.3,1.9-0.8,3.8-1.2,5.8c-0.2,1.2-0.4,2.4-0.6,3.6
			c-0.1,0.9-0.2,1.8-0.3,2.7c-0.1,1-0.1,2,0,3c0.1,0.5,0.2,1.4,0.8,1.6C224.5,164.3,224.4,164.7,224.1,164.7L224.1,164.7z
			 M225,159.8c-0.1,0.2-0.2,0.3-0.3,0.5c-0.1,0.1-0.2,0.1-0.3,0.1c0,0-0.1-0.1-0.1-0.1c-0.1-1,0-2,0.3-2.9c0.1-0.3,0.5-0.2,0.5,0.1
			s-0.2,0.9-0.3,1.3c0,0.2-0.1,0.5-0.1,0.7c0.1-0.1,0.2-0.2,0.3-0.1C225,159.5,225.1,159.7,225,159.8L225,159.8z M234.7,133
			c-1,1.4-1.8,2.9-2.5,4.5c-1.3,2.7-2.4,5.5-3.3,8.3c-0.8,2.9-1.9,5.7-3.3,8.3c-0.1,0.3-0.6,0-0.4-0.2c0.8-1.5,1.5-3.1,2-4.7
			c0.5-1.4,0.9-2.8,1.4-4.2s1-2.8,1.6-4.1c1-2.8,2.4-5.5,4-8.1C234.4,132.5,234.9,132.8,234.7,133z"/>
		<path class="st0" d="M114.6,79.9c0,0.3-0.1,0.8-0.1,0.8c0,0.6,0,0.8,0,1.3c0,0.8-0.2,1.7-0.4,2.4c-0.1,0.3-0.1,0.5-0.2,0.7
			c-2.1,8.4-4.6,16.6-7.6,24.7c-0.1,0.1-0.2,0.3-0.2,0.5c-7.8,21.9-15.2,40.4-22.1,55.1c-6.9,3.5-11,8-12.2,13.3
			c-0.2,0.9-0.3,1.9-0.3,2.8c0,3.6,1.2,5.7,3.7,6.4h0.1h0.4c1.4,0,2.7-0.9,3.8-2.5c2.2-3,5.2-8.3,8.8-15.9c7.4-3.4,15.4-5.4,23.6-6
			c2.4-0.3,4.9-0.4,7.3-0.4l6,0.2l2.6,0.4c2.7,0.5,4.7,1.3,5.9,2.5v0.2c0,1.4,0.9,2.6,2.3,3h0.1l0.9,0.1h0.1
			c0.9,0.1,1.6-0.6,1.7-1.4c0,0,0,0,0,0V168c-0.1-2.9-1.7-5.1-4.7-6.7c-2.9-1.5-6-2.5-9.2-2.7c-2.5-0.3-5-0.4-7.4-0.4
			c-8.7,0-17.4,1.4-25.7,4.2c4.5-10.2,8.8-20.6,12.7-31c7.6-19.9,12.7-35.1,14.9-45.2c0.3-1.4,0.3-2.8,0.2-4.3
			c0-0.3-0.6-5.2-2.2-5.3C116,76.5,114.7,78.9,114.6,79.9z M122,159.6c0.6,0.2,1.2,0.4,1.8,0.5c0.5,0.1,0.9,0.2,1.4,0.1
			c-0.1,0-0.3-0.1-0.4-0.1c-0.3-0.1-0.2-0.5,0.1-0.5c0.2,0,0.4,0.1,0.6,0.2c0.1,0.1,0.2,0.1,0.3,0.2c0.1,0.1,0.1,0.2,0.1,0.3
			c0,0.1-0.1,0.2-0.2,0.2c-1.3,0.4-2.6-0.2-3.8-0.6c-0.1,0-0.2-0.2-0.1-0.3C121.8,159.7,121.9,159.6,122,159.6z M107.2,160.2
			c0.6-0.1,1.1-0.3,1.7-0.4c0.1,0,0.2,0.1,0.2,0.2l0,0c0,0.1-0.1,0.2-0.2,0.2c-0.5,0.1-1,0.2-1.6,0.3c-0.1,0-0.3,0-0.3-0.2
			C107,160.4,107,160.2,107.2,160.2L107.2,160.2z M93.4,163.6c3.6-0.4,6.8-2.2,10.4-2.3c0.3,0,0.3,0.5,0,0.5
			c-3.6,0.2-6.8,1.9-10.4,2.3C93.1,164.1,93.1,163.6,93.4,163.6L93.4,163.6z M95.1,150c-1,2.1-2.4,4.1-3.1,6.3
			c-0.1,0.3-0.6,0.2-0.5-0.1c0.8-2.3,2.2-4.3,3.2-6.4C94.9,149.5,95.3,149.7,95.1,150z M112,106c-0.4,1.7-1.3,3.2-1.8,4.9
			c0,0.1-0.2,0.2-0.3,0.1c-0.1,0-0.2-0.2-0.1-0.3c0.5-1.7,1.3-3.2,1.8-4.9c0-0.1,0.2-0.2,0.3-0.1C112,105.8,112,105.9,112,106z
			 M117.2,85.8c-0.3,1.7-0.4,3.7-1.5,5.1c-0.1,0.1-0.2,0.2-0.3,0.1c-0.1,0-0.1-0.1-0.1-0.2c0.1-1.7,0.6-3.4,1.3-5
			c0-0.1,0.1-0.1,0.1-0.1l0,0C116.8,85.4,117.2,85.5,117.2,85.8L117.2,85.8z M114.4,88.4c0.7-2.3,1.2-4.6,1.6-7c0-0.3,0.5-0.3,0.5,0
			c-0.4,2.4-0.9,4.8-1.6,7.2C114.7,88.8,114.3,88.7,114.4,88.4L114.4,88.4z M106.7,115.5c0.5-1.6,1-3.2,1.5-4.7
			c1.9-5.5,3.9-11,5.6-16.7c0.1-0.1,0.2-0.2,0.3-0.1c0.1,0,0.2,0.1,0.1,0.2c-0.5,1.6-1,3.2-1.5,4.7c-1.8,5.6-3.9,11.1-5.7,16.7
			C107,115.9,106.5,115.8,106.7,115.5L106.7,115.5z M102,125.4c1.3-2.8,1.9-5.8,2.9-8.7c0.1-0.3,0.6-0.2,0.5,0.1
			c-1.1,2.9-1.6,6-3,8.8C102.3,125.9,101.9,125.6,102,125.4z M102.5,129.5c1.1-3.4,1.9-7,3.7-10.2c0.1-0.1,0.2-0.1,0.3,0
			c0.1,0.1,0.1,0.2,0.1,0.3c-1,1.8-1.7,3.7-2.3,5.7c-0.6,1.8-1,3.5-1.6,5.2c-0.3,0.9-0.7,1.9-1.1,2.8s-0.7,1.9-1.1,2.9
			c-1.4,3.8-2.8,7.7-4.4,11.4c-0.1,0.3-0.5,0-0.4-0.2c0.9-2.1,1.8-4.3,2.6-6.5c0.7-1.9,1.4-3.9,2.2-5.8S101.9,131.4,102.5,129.5
			L102.5,129.5z M90.9,153.1c0.7-1.5,1.5-2.9,2.2-4.4c1.3-2.6,2.4-5.3,3.2-8c0.8-2.7,1.8-5.3,3.2-7.8c0.2-0.3,0.6,0,0.4,0.2
			c-0.8,1.4-1.5,2.9-2,4.4c-0.5,1.3-0.9,2.7-1.3,4s-1,2.7-1.5,4.1c-1.1,2.6-2.4,5.2-3.7,7.7C91.1,153.6,90.7,153.3,90.9,153.1z
			 M89,158.7c0.4-1.1,1-2.2,1.7-3.2c0.2-0.3,0.6,0,0.4,0.2c-0.7,1-1.2,2-1.7,3.1c0,0.1-0.2,0.2-0.3,0.1C89,158.9,89,158.8,89,158.7z
			 M79.7,171.6c1.2-1.9,3-3.8,5.2-4.4c0.3-0.1,0.4,0.4,0.1,0.5c-1.2,0.4-2.3,1-3.1,1.9c-1.6,1.7-2.8,3.6-3.7,5.7
			c-1.1,2.5-1.9,5.2-1.2,7.9c0.1,0.3-0.4,0.4-0.5,0.1c-0.4-1.5-0.4-3.1,0-4.7c0.3-1.4,0.8-2.7,1.4-4
			C78.5,173.6,79.1,172.5,79.7,171.6L79.7,171.6z M82.1,171.4c-0.7,2-1.6,4-2.5,5.9c-0.1,0.1-0.2,0.2-0.3,0.1s-0.2-0.2-0.1-0.3
			c1-1.9,1.8-3.9,2.5-5.9C81.8,170.9,82.2,171.1,82.1,171.4L82.1,171.4z M75.2,178.4c0.5-2.1,1.3-4,2.3-5.9c0.1-0.3,0.6,0,0.4,0.2
			c-1,1.8-1.7,3.8-2.2,5.8C75.6,178.8,75.2,178.6,75.2,178.4L75.2,178.4z M74.8,178.2c-0.1,0.7-0.2,1.4-0.4,2.1
			c-0.2,0.7-0.4,1.4-0.8,2c-0.1,0.1-0.2,0.1-0.3,0.1c0,0-0.1,0-0.1-0.1c-0.3-0.7-0.3-1.5-0.1-2.2c0.1-0.8,0.4-1.5,0.7-2.2
			c0.1-0.3,0.5,0,0.4,0.2c-0.3,0.6-0.5,1.3-0.6,2c-0.1,0.5-0.1,0.9-0.1,1.4c0.2-0.4,0.3-0.9,0.4-1.4c0.2-0.7,0.3-1.3,0.4-2
			C74.4,177.8,74.9,177.8,74.8,178.2L74.8,178.2z M82.6,173.9c-0.5,1.8-1.2,3.5-1.9,5.2c-0.6,1.4-1.2,2.8-1.8,4.2
			c-0.3,0.9-0.7,1.8-1.2,2.6c-0.5,0.6-1.3,0.8-2,0.3c-0.1-0.1-0.2-0.1-0.2-0.2c-0.5-0.7-0.7-1.7-0.6-2.6c0.1-0.3,0.5-0.2,0.5,0.1
			c-0.2,0.8,0,2.1,0.8,2.4s1.4-0.7,1.7-1.3c0.4-0.9,0.7-1.8,1.1-2.7c1.2-2.7,2.3-5.4,3.2-8.2C82.3,173.5,82.7,173.6,82.6,173.9
			L82.6,173.9z M84.1,174.1c-0.1,0.3-0.6,0-0.4-0.2c0.6-1.2,1.2-2.4,1.7-3.6c1.9-4.2,3.7-8.6,6.2-12.5c0.2-0.3,0.6,0,0.4,0.2
			c-0.7,1.1-1.4,2.2-2,3.4C87.9,165.6,86.2,170,84.1,174.1L84.1,174.1z M91.4,164.8c0,0.1,0,0.1-0.1,0.2c-0.1,0.1-0.3,0.2-0.4,0.3
			l0,0c0,0-0.1,0.1-0.2,0.1c-0.1,0-0.1,0-0.2-0.1c0,0-0.1-0.1-0.1-0.2c0-0.1,0-0.1,0.1-0.2c0.1-0.1,0.3-0.2,0.4-0.3c0,0,0,0,0.1,0
			c0.1-0.1,0.2-0.1,0.3,0c0,0,0,0,0,0C91.4,164.7,91.5,164.7,91.4,164.8L91.4,164.8z M94.3,166c-1.6,0.4-3.1,1.2-4.4,2.2
			c-0.2,0.2-0.5-0.2-0.2-0.4c1.4-1,2.9-1.8,4.6-2.2c0.1,0,0.3,0.1,0.3,0.2C94.4,165.9,94.4,166,94.3,166z M114.7,161.2
			c-1.1,0-2.2,0-3.3,0.1c-1.8,0.2-3.6,0.5-5.3,0.9c-1.7,0.2-3.3,0.7-4.8,1.4c-0.3,0.1-0.5-0.3-0.2-0.4c0.8-0.4,1.7-0.8,2.7-1
			c0.8-0.2,1.7-0.4,2.6-0.6s1.7-0.4,2.6-0.6c1.9-0.3,3.9-0.4,5.9-0.4C115,160.7,115,161.2,114.7,161.2L114.7,161.2z M132.5,163.1
			c-0.7-0.7-1.7-1.1-2.6-1.2c-1.9-0.3-3.9-0.1-5.8-0.3c-2.8-0.3-5.5-1-8.3-1.3c-0.3,0-0.3-0.5,0-0.5c1.6,0.1,3.2,0.4,4.8,0.7
			c1.4,0.3,2.9,0.5,4.3,0.6c0.9,0.1,1.9,0,2.8,0.1c1,0,2,0.1,3,0.3c0.9,0.2,1.7,0.6,2.3,1.2C133.1,163,132.7,163.3,132.5,163.1
			L132.5,163.1z M133.6,164.4c0,0.1-0.1,0.1-0.1,0.1c0,0-0.1,0-0.1,0h-0.1c0,0-0.1,0-0.1,0c0,0,0,0-0.1-0.1l0,0l0,0
			c-0.1,0-0.1-0.1-0.2-0.1c-0.1-0.1-0.1-0.2-0.1-0.3c0,0,0,0,0,0c0,0,0-0.1,0.1-0.1h0.1h0.1c0,0,0.1,0,0.1,0l0.2,0.1l0.1,0.1l0,0
			c0,0,0.1,0.1,0.1,0.1C133.6,164.3,133.6,164.3,133.6,164.4L133.6,164.4z M135.8,167.9c-0.1,0.1-0.2,0.2-0.3,0.1c0,0,0,0,0,0
			c-0.3-0.1-0.5-0.3-0.6-0.6c-0.1-0.3-0.2-0.6-0.1-0.9c0-0.1,0.2-0.2,0.3-0.2c0,0,0,0,0,0c0.1,0,0.1,0.1,0.1,0.1c0,0.1,0,0.1,0,0.2
			c0-0.1,0,0,0,0v0.1c0,0,0,0.1,0,0.1c0,0,0,0,0,0.1l0,0c0,0.1,0,0.1,0,0.2v0.1l0,0l0,0v0.1c0,0,0,0.1,0,0.1l0,0l0,0v0.1l0,0l0,0
			l0,0l0,0l0.2,0.1c0.1-0.1,0.4-0.1,0.5,0C135.9,167.5,135.9,167.7,135.8,167.9L135.8,167.9L135.8,167.9z M136,166.4
			c0,0.1-0.1,0.2-0.2,0.2c0,0,0,0,0,0c-0.1,0-0.2-0.1-0.2-0.2c0-0.3,0-0.5-0.1-0.8c0-0.1-0.1-0.2-0.1-0.3l-0.2-0.4
			c-0.1-0.1,0-0.3,0.1-0.3c0,0,0,0,0,0c0.1-0.1,0.3,0,0.3,0.1C135.8,165.2,136,165.8,136,166.4L136,166.4z M137.4,167.7
			c-0.1,0.3-0.5,0.2-0.5-0.1c0.2-1,0-2.1-0.6-3c-0.7-0.8-1.5-1.5-2.4-2c-0.3-0.2,0-0.6,0.2-0.4c1,0.6,1.9,1.3,2.6,2.2
			C137.4,165.4,137.7,166.6,137.4,167.7L137.4,167.7z"/>
	</g>
</g>
</svg>
